%TF.GenerationSoftware,KiCad,Pcbnew,5.1.10-88a1d61d58~88~ubuntu20.04.1*%
%TF.CreationDate,2021-07-12T17:43:57-04:00*%
%TF.ProjectId,micropantograph,6d696372-6f70-4616-9e74-6f6772617068,rev?*%
%TF.SameCoordinates,Original*%
%TF.FileFunction,Copper,L1,Top*%
%TF.FilePolarity,Positive*%
%FSLAX46Y46*%
G04 Gerber Fmt 4.6, Leading zero omitted, Abs format (unit mm)*
G04 Created by KiCad (PCBNEW 5.1.10-88a1d61d58~88~ubuntu20.04.1) date 2021-07-12 17:43:57*
%MOMM*%
%LPD*%
G01*
G04 APERTURE LIST*
%TA.AperFunction,NonConductor*%
%ADD10C,0.400000*%
%TD*%
%TA.AperFunction,SMDPad,CuDef*%
%ADD11R,1.000000X3.150000*%
%TD*%
%TA.AperFunction,SMDPad,CuDef*%
%ADD12R,2.000000X1.500000*%
%TD*%
%TA.AperFunction,SMDPad,CuDef*%
%ADD13R,1.300000X1.300000*%
%TD*%
%TA.AperFunction,SMDPad,CuDef*%
%ADD14R,2.000000X1.300000*%
%TD*%
%TA.AperFunction,SMDPad,CuDef*%
%ADD15R,1.250000X3.000000*%
%TD*%
%TA.AperFunction,SMDPad,CuDef*%
%ADD16R,1.500000X2.000000*%
%TD*%
%TA.AperFunction,SMDPad,CuDef*%
%ADD17R,0.500000X1.600000*%
%TD*%
%TA.AperFunction,SMDPad,CuDef*%
%ADD18R,0.500000X2.200000*%
%TD*%
%TA.AperFunction,SMDPad,CuDef*%
%ADD19R,4.000000X1.800000*%
%TD*%
%TA.AperFunction,Conductor*%
%ADD20C,0.500000*%
%TD*%
%TA.AperFunction,Conductor*%
%ADD21C,1.000000*%
%TD*%
%TA.AperFunction,Conductor*%
%ADD22C,0.100000*%
%TD*%
G04 APERTURE END LIST*
D10*
X152738095Y-65130952D02*
X152738095Y-62630952D01*
X153571428Y-64416666D01*
X154404761Y-62630952D01*
X154404761Y-65130952D01*
X155595238Y-65130952D02*
X155595238Y-62630952D01*
X158214285Y-64892857D02*
X158095238Y-65011904D01*
X157738095Y-65130952D01*
X157500000Y-65130952D01*
X157142857Y-65011904D01*
X156904761Y-64773809D01*
X156785714Y-64535714D01*
X156666666Y-64059523D01*
X156666666Y-63702380D01*
X156785714Y-63226190D01*
X156904761Y-62988095D01*
X157142857Y-62750000D01*
X157500000Y-62630952D01*
X157738095Y-62630952D01*
X158095238Y-62750000D01*
X158214285Y-62869047D01*
X160714285Y-65130952D02*
X159880952Y-63940476D01*
X159285714Y-65130952D02*
X159285714Y-62630952D01*
X160238095Y-62630952D01*
X160476190Y-62750000D01*
X160595238Y-62869047D01*
X160714285Y-63107142D01*
X160714285Y-63464285D01*
X160595238Y-63702380D01*
X160476190Y-63821428D01*
X160238095Y-63940476D01*
X159285714Y-63940476D01*
X162261904Y-62630952D02*
X162738095Y-62630952D01*
X162976190Y-62750000D01*
X163214285Y-62988095D01*
X163333333Y-63464285D01*
X163333333Y-64297619D01*
X163214285Y-64773809D01*
X162976190Y-65011904D01*
X162738095Y-65130952D01*
X162261904Y-65130952D01*
X162023809Y-65011904D01*
X161785714Y-64773809D01*
X161666666Y-64297619D01*
X161666666Y-63464285D01*
X161785714Y-62988095D01*
X162023809Y-62750000D01*
X162261904Y-62630952D01*
X164404761Y-65130952D02*
X164404761Y-62630952D01*
X165357142Y-62630952D01*
X165595238Y-62750000D01*
X165714285Y-62869047D01*
X165833333Y-63107142D01*
X165833333Y-63464285D01*
X165714285Y-63702380D01*
X165595238Y-63821428D01*
X165357142Y-63940476D01*
X164404761Y-63940476D01*
X166785714Y-64416666D02*
X167976190Y-64416666D01*
X166547619Y-65130952D02*
X167380952Y-62630952D01*
X168214285Y-65130952D01*
X169047619Y-65130952D02*
X169047619Y-62630952D01*
X170476190Y-65130952D01*
X170476190Y-62630952D01*
X171309523Y-62630952D02*
X172738095Y-62630952D01*
X172023809Y-65130952D02*
X172023809Y-62630952D01*
X174047619Y-62630952D02*
X174523809Y-62630952D01*
X174761904Y-62750000D01*
X175000000Y-62988095D01*
X175119047Y-63464285D01*
X175119047Y-64297619D01*
X175000000Y-64773809D01*
X174761904Y-65011904D01*
X174523809Y-65130952D01*
X174047619Y-65130952D01*
X173809523Y-65011904D01*
X173571428Y-64773809D01*
X173452380Y-64297619D01*
X173452380Y-63464285D01*
X173571428Y-62988095D01*
X173809523Y-62750000D01*
X174047619Y-62630952D01*
X177500000Y-62750000D02*
X177261904Y-62630952D01*
X176904761Y-62630952D01*
X176547619Y-62750000D01*
X176309523Y-62988095D01*
X176190476Y-63226190D01*
X176071428Y-63702380D01*
X176071428Y-64059523D01*
X176190476Y-64535714D01*
X176309523Y-64773809D01*
X176547619Y-65011904D01*
X176904761Y-65130952D01*
X177142857Y-65130952D01*
X177500000Y-65011904D01*
X177619047Y-64892857D01*
X177619047Y-64059523D01*
X177142857Y-64059523D01*
X180119047Y-65130952D02*
X179285714Y-63940476D01*
X178690476Y-65130952D02*
X178690476Y-62630952D01*
X179642857Y-62630952D01*
X179880952Y-62750000D01*
X180000000Y-62869047D01*
X180119047Y-63107142D01*
X180119047Y-63464285D01*
X180000000Y-63702380D01*
X179880952Y-63821428D01*
X179642857Y-63940476D01*
X178690476Y-63940476D01*
X181071428Y-64416666D02*
X182261904Y-64416666D01*
X180833333Y-65130952D02*
X181666666Y-62630952D01*
X182500000Y-65130952D01*
X183333333Y-65130952D02*
X183333333Y-62630952D01*
X184285714Y-62630952D01*
X184523809Y-62750000D01*
X184642857Y-62869047D01*
X184761904Y-63107142D01*
X184761904Y-63464285D01*
X184642857Y-63702380D01*
X184523809Y-63821428D01*
X184285714Y-63940476D01*
X183333333Y-63940476D01*
X185833333Y-65130952D02*
X185833333Y-62630952D01*
X185833333Y-63821428D02*
X187261904Y-63821428D01*
X187261904Y-65130952D02*
X187261904Y-62630952D01*
D11*
%TO.P,J2,1*%
%TO.N,VCC*%
X151270000Y-78475000D03*
%TO.P,J2,2*%
X151270000Y-83525000D03*
%TO.P,J2,3*%
%TO.N,GND*%
X148730000Y-78475000D03*
%TO.P,J2,4*%
X148730000Y-83525000D03*
%TD*%
D12*
%TO.P,C3,1*%
%TO.N,VCC*%
X165500000Y-72222000D03*
%TO.P,C3,2*%
%TO.N,GND*%
X165500000Y-75778000D03*
%TD*%
D11*
%TO.P,J3,4*%
%TO.N,Net-(J3-Pad3)*%
X186730000Y-83525000D03*
%TO.P,J3,3*%
X186730000Y-78475000D03*
%TO.P,J3,2*%
%TO.N,+5V*%
X189270000Y-83525000D03*
%TO.P,J3,1*%
X189270000Y-78475000D03*
%TD*%
D13*
%TO.P,RV1,1*%
%TO.N,GND*%
X180650000Y-83600000D03*
D14*
%TO.P,RV1,2*%
%TO.N,Net-(RV1-Pad2)*%
X179500000Y-78400000D03*
D13*
%TO.P,RV1,3*%
%TO.N,+5V*%
X178350000Y-83600000D03*
%TD*%
D12*
%TO.P,C1,1*%
%TO.N,Net-(C1-Pad1)*%
X158500000Y-79222000D03*
%TO.P,C1,2*%
%TO.N,GND*%
X158500000Y-82778000D03*
%TD*%
%TO.P,C2,2*%
%TO.N,GND*%
X165500000Y-82778000D03*
%TO.P,C2,1*%
%TO.N,+5V*%
X165500000Y-79222000D03*
%TD*%
%TO.P,C4,1*%
%TO.N,+5V*%
X174000000Y-75722000D03*
%TO.P,C4,2*%
%TO.N,GND*%
X174000000Y-79278000D03*
%TD*%
%TO.P,C6,1*%
%TO.N,VCC*%
X162500000Y-72222000D03*
%TO.P,C6,2*%
%TO.N,GND*%
X162500000Y-75778000D03*
%TD*%
%TO.P,D1,1*%
%TO.N,Net-(D1-Pad1)*%
X190000000Y-73778000D03*
%TO.P,D1,2*%
%TO.N,Net-(D1-Pad2)*%
X190000000Y-70222000D03*
%TD*%
%TO.P,J5,1*%
%TO.N,GND*%
%TA.AperFunction,SMDPad,CuDef*%
G36*
G01*
X176037500Y-86000000D02*
X176662500Y-86000000D01*
G75*
G02*
X176975000Y-86312500I0J-312500D01*
G01*
X176975000Y-88687500D01*
G75*
G02*
X176662500Y-89000000I-312500J0D01*
G01*
X176037500Y-89000000D01*
G75*
G02*
X175725000Y-88687500I0J312500D01*
G01*
X175725000Y-86312500D01*
G75*
G02*
X176037500Y-86000000I312500J0D01*
G01*
G37*
%TD.AperFunction*%
D15*
%TO.P,J5,2*%
%TO.N,Net-(J5-Pad2)*%
X173810000Y-87500000D03*
%TO.P,J5,3*%
%TO.N,Net-(J5-Pad3)*%
X171270000Y-87500000D03*
%TO.P,J5,4*%
%TO.N,Net-(J5-Pad4)*%
X168730000Y-87500000D03*
%TO.P,J5,5*%
%TO.N,Net-(J5-Pad5)*%
X166190000Y-87500000D03*
%TO.P,J5,6*%
%TO.N,Net-(J5-Pad6)*%
X163650000Y-87500000D03*
%TD*%
D12*
%TO.P,R2,1*%
%TO.N,Net-(D1-Pad1)*%
X186000000Y-73778000D03*
%TO.P,R2,2*%
%TO.N,GND*%
X186000000Y-70222000D03*
%TD*%
D16*
%TO.P,R4,2*%
%TO.N,Net-(J5-Pad5)*%
X168222000Y-84000000D03*
%TO.P,R4,1*%
%TO.N,Net-(J5-Pad4)*%
X171778000Y-84000000D03*
%TD*%
D17*
%TO.P,U1,1*%
%TO.N,+5V*%
X162949960Y-79000000D03*
%TO.P,U1,2*%
%TO.N,Net-(C1-Pad1)*%
X161050040Y-79000000D03*
%TO.P,U1,3*%
%TO.N,GND*%
X162000000Y-82000000D03*
%TD*%
%TO.P,U2,1*%
%TO.N,+5V*%
%TA.AperFunction,SMDPad,CuDef*%
G36*
G01*
X172155000Y-73372860D02*
X172155000Y-75322860D01*
G75*
G02*
X172030000Y-75447860I-125000J0D01*
G01*
X171780000Y-75447860D01*
G75*
G02*
X171655000Y-75322860I0J125000D01*
G01*
X171655000Y-73372860D01*
G75*
G02*
X171780000Y-73247860I125000J0D01*
G01*
X172030000Y-73247860D01*
G75*
G02*
X172155000Y-73372860I0J-125000D01*
G01*
G37*
%TD.AperFunction*%
D18*
%TO.P,U2,2*%
%TO.N,Net-(J3-Pad3)*%
X170642620Y-74347860D03*
%TO.P,U2,3*%
%TO.N,Net-(D1-Pad2)*%
X169375160Y-74347860D03*
%TO.P,U2,4*%
%TO.N,/TCA0_WO1*%
X168105160Y-74347860D03*
%TO.P,U2,5*%
%TO.N,Net-(U2-Pad5)*%
X168095000Y-80652140D03*
%TO.P,U2,6*%
%TO.N,Net-(J5-Pad5)*%
X169365000Y-80652140D03*
%TO.P,U2,7*%
%TO.N,Net-(RV1-Pad2)*%
X170635000Y-80652140D03*
%TO.P,U2,8*%
%TO.N,GND*%
X171905000Y-80652140D03*
%TD*%
D19*
%TO.P,J1,1*%
%TO.N,GND*%
X158500000Y-74540000D03*
%TO.P,J1,2*%
%TO.N,VCC*%
X158500000Y-72000000D03*
%TO.P,J1,3*%
%TO.N,/TCA0_WO1*%
X158500000Y-69460000D03*
%TD*%
D12*
%TO.P,R1,1*%
%TO.N,VCC*%
X155500000Y-82778000D03*
%TO.P,R1,2*%
%TO.N,Net-(C1-Pad1)*%
X155500000Y-79222000D03*
%TD*%
D20*
%TO.N,GND*%
X172625860Y-80652140D02*
X174000000Y-79278000D01*
X171905000Y-80652140D02*
X172625860Y-80652140D01*
%TO.N,Net-(D1-Pad1)*%
X190000000Y-73778000D02*
X186000000Y-73778000D01*
%TO.N,Net-(D1-Pad2)*%
X188499999Y-71722001D02*
X181722001Y-71722001D01*
X190000000Y-70222000D02*
X188499999Y-71722001D01*
X181722001Y-71722001D02*
X181000000Y-71000000D01*
X169375160Y-72747860D02*
X169375160Y-74347860D01*
X171123020Y-71000000D02*
X169375160Y-72747860D01*
X181000000Y-71000000D02*
X171123020Y-71000000D01*
%TO.N,/TCA0_WO1*%
X165838002Y-69460000D02*
X158500000Y-69460000D01*
X168105160Y-71727158D02*
X165838002Y-69460000D01*
X168105160Y-74347860D02*
X168105160Y-71727158D01*
D21*
%TO.N,Net-(C1-Pad1)*%
X160828040Y-79222000D02*
X161050040Y-79000000D01*
X158500000Y-79222000D02*
X160828040Y-79222000D01*
%TO.N,VCC*%
X162278000Y-72000000D02*
X162500000Y-72222000D01*
X158500000Y-72000000D02*
X162278000Y-72000000D01*
X162500000Y-72222000D02*
X165500000Y-72222000D01*
X151270000Y-83525000D02*
X151270000Y-78475000D01*
X155170000Y-72000000D02*
X158500000Y-72000000D01*
X151270000Y-75900000D02*
X155170000Y-72000000D01*
X151270000Y-78475000D02*
X151270000Y-75900000D01*
X152017000Y-82778000D02*
X151270000Y-83525000D01*
X155500000Y-82778000D02*
X152017000Y-82778000D01*
D20*
%TO.N,+5V*%
X173279140Y-75722000D02*
X171905000Y-74347860D01*
X174000000Y-75722000D02*
X173279140Y-75722000D01*
X165278000Y-79000000D02*
X165500000Y-79222000D01*
X162949960Y-79000000D02*
X165278000Y-79000000D01*
X171905000Y-75785482D02*
X171905000Y-74347860D01*
X168888343Y-78802139D02*
X171905000Y-75785482D01*
X165919861Y-78802139D02*
X168888343Y-78802139D01*
X165500000Y-79222000D02*
X165919861Y-78802139D01*
X189270000Y-78475000D02*
X189270000Y-83525000D01*
X178350000Y-82450000D02*
X178350000Y-83600000D01*
X178600001Y-82199999D02*
X178350000Y-82450000D01*
X181900001Y-82199999D02*
X178600001Y-82199999D01*
X185550003Y-85850001D02*
X181900001Y-82199999D01*
X189019999Y-85850001D02*
X185550003Y-85850001D01*
X189270000Y-85600000D02*
X189019999Y-85850001D01*
X189270000Y-83525000D02*
X189270000Y-85600000D01*
X179822002Y-75722000D02*
X174000000Y-75722000D01*
X181900001Y-77799999D02*
X179822002Y-75722000D01*
X181900001Y-82199999D02*
X181900001Y-77799999D01*
%TO.N,Net-(J5-Pad4)*%
X168730000Y-86564998D02*
X168730000Y-87500000D01*
X171294998Y-84000000D02*
X168730000Y-86564998D01*
X171778000Y-84000000D02*
X171294998Y-84000000D01*
%TO.N,Net-(J5-Pad5)*%
X166190000Y-86032000D02*
X168222000Y-84000000D01*
X166190000Y-87500000D02*
X166190000Y-86032000D01*
X169365000Y-82857000D02*
X169365000Y-80652140D01*
X168222000Y-84000000D02*
X169365000Y-82857000D01*
%TO.N,Net-(RV1-Pad2)*%
X178877999Y-77777999D02*
X179500000Y-78400000D01*
X171909141Y-77777999D02*
X178877999Y-77777999D01*
X170635000Y-79052140D02*
X171909141Y-77777999D01*
X170635000Y-80652140D02*
X170635000Y-79052140D01*
%TO.N,Net-(J3-Pad3)*%
X186730000Y-78475000D02*
X186730000Y-83525000D01*
X171039398Y-72497850D02*
X180752850Y-72497850D01*
X170642620Y-74347860D02*
X170642620Y-72894628D01*
X170642620Y-72894628D02*
X171039398Y-72497850D01*
X180752850Y-72497850D02*
X186730000Y-78475000D01*
D21*
%TO.N,Net-(C1-Pad1)*%
X155500000Y-79222000D02*
X158500000Y-79222000D01*
%TD*%
D20*
%TO.N,GND*%
X151192857Y-63271393D02*
X150994723Y-63139004D01*
X150612547Y-62980702D01*
X150206832Y-62900000D01*
X149793168Y-62900000D01*
X149387453Y-62980702D01*
X149005277Y-63139004D01*
X148661328Y-63368823D01*
X148368823Y-63661328D01*
X148139004Y-64005277D01*
X147980702Y-64387453D01*
X147900000Y-64793168D01*
X147900000Y-65206832D01*
X147980702Y-65612547D01*
X148139004Y-65994723D01*
X148368823Y-66338672D01*
X148661328Y-66631177D01*
X149005277Y-66860996D01*
X149387453Y-67019298D01*
X149793168Y-67100000D01*
X150206832Y-67100000D01*
X150612547Y-67019298D01*
X150994723Y-66860996D01*
X151192857Y-66728607D01*
X151192857Y-67000000D01*
X188807143Y-67000000D01*
X188807143Y-66728607D01*
X189005277Y-66860996D01*
X189387453Y-67019298D01*
X189793168Y-67100000D01*
X190206832Y-67100000D01*
X190612547Y-67019298D01*
X190994723Y-66860996D01*
X191338672Y-66631177D01*
X191631177Y-66338672D01*
X191860996Y-65994723D01*
X192019298Y-65612547D01*
X192100000Y-65206832D01*
X192100000Y-64793168D01*
X192019298Y-64387453D01*
X191860996Y-64005277D01*
X191631177Y-63661328D01*
X191338672Y-63368823D01*
X190994723Y-63139004D01*
X190612547Y-62980702D01*
X190206832Y-62900000D01*
X189793168Y-62900000D01*
X189387453Y-62980702D01*
X189005277Y-63139004D01*
X188807143Y-63271393D01*
X188807143Y-62775000D01*
X189962098Y-62775000D01*
X190431448Y-62821021D01*
X190846465Y-62946322D01*
X191229239Y-63149845D01*
X191565192Y-63423842D01*
X191841529Y-63757876D01*
X192047720Y-64139219D01*
X192175915Y-64553349D01*
X192225001Y-65020380D01*
X192225000Y-89962098D01*
X192178980Y-90431447D01*
X192053679Y-90846465D01*
X191850152Y-91229243D01*
X191576159Y-91565191D01*
X191242124Y-91841529D01*
X190860784Y-92047718D01*
X190446650Y-92175915D01*
X189979638Y-92225000D01*
X150037902Y-92225000D01*
X149568553Y-92178980D01*
X149153535Y-92053679D01*
X148770757Y-91850152D01*
X148434809Y-91576159D01*
X148158471Y-91242124D01*
X147952282Y-90860784D01*
X147824085Y-90446650D01*
X147775000Y-89979638D01*
X147775000Y-89793168D01*
X147900000Y-89793168D01*
X147900000Y-90206832D01*
X147980702Y-90612547D01*
X148139004Y-90994723D01*
X148368823Y-91338672D01*
X148661328Y-91631177D01*
X149005277Y-91860996D01*
X149387453Y-92019298D01*
X149793168Y-92100000D01*
X150206832Y-92100000D01*
X150612547Y-92019298D01*
X150994723Y-91860996D01*
X151338672Y-91631177D01*
X151631177Y-91338672D01*
X151860996Y-90994723D01*
X152019298Y-90612547D01*
X152100000Y-90206832D01*
X152100000Y-89793168D01*
X187900000Y-89793168D01*
X187900000Y-90206832D01*
X187980702Y-90612547D01*
X188139004Y-90994723D01*
X188368823Y-91338672D01*
X188661328Y-91631177D01*
X189005277Y-91860996D01*
X189387453Y-92019298D01*
X189793168Y-92100000D01*
X190206832Y-92100000D01*
X190612547Y-92019298D01*
X190994723Y-91860996D01*
X191338672Y-91631177D01*
X191631177Y-91338672D01*
X191860996Y-90994723D01*
X192019298Y-90612547D01*
X192100000Y-90206832D01*
X192100000Y-89793168D01*
X192019298Y-89387453D01*
X191860996Y-89005277D01*
X191631177Y-88661328D01*
X191338672Y-88368823D01*
X190994723Y-88139004D01*
X190612547Y-87980702D01*
X190206832Y-87900000D01*
X189793168Y-87900000D01*
X189387453Y-87980702D01*
X189005277Y-88139004D01*
X188661328Y-88368823D01*
X188368823Y-88661328D01*
X188139004Y-89005277D01*
X187980702Y-89387453D01*
X187900000Y-89793168D01*
X152100000Y-89793168D01*
X152019298Y-89387453D01*
X151860996Y-89005277D01*
X151631177Y-88661328D01*
X151338672Y-88368823D01*
X150994723Y-88139004D01*
X150612547Y-87980702D01*
X150206832Y-87900000D01*
X149793168Y-87900000D01*
X149387453Y-87980702D01*
X149005277Y-88139004D01*
X148661328Y-88368823D01*
X148368823Y-88661328D01*
X148139004Y-89005277D01*
X147980702Y-89387453D01*
X147900000Y-89793168D01*
X147775000Y-89793168D01*
X147775000Y-85696824D01*
X147811306Y-85726620D01*
X147941599Y-85796262D01*
X148082974Y-85839148D01*
X148230000Y-85853629D01*
X148392500Y-85850000D01*
X148580000Y-85662500D01*
X148580000Y-83675000D01*
X148880000Y-83675000D01*
X148880000Y-85662500D01*
X149067500Y-85850000D01*
X149230000Y-85853629D01*
X149377026Y-85839148D01*
X149518401Y-85796262D01*
X149648694Y-85726620D01*
X149762896Y-85632896D01*
X149856620Y-85518694D01*
X149926262Y-85388401D01*
X149969148Y-85247026D01*
X149983629Y-85100000D01*
X149980000Y-83862500D01*
X149792500Y-83675000D01*
X148880000Y-83675000D01*
X148580000Y-83675000D01*
X148560000Y-83675000D01*
X148560000Y-83375000D01*
X148580000Y-83375000D01*
X148580000Y-81387500D01*
X148880000Y-81387500D01*
X148880000Y-83375000D01*
X149792500Y-83375000D01*
X149980000Y-83187500D01*
X149983629Y-81950000D01*
X149969148Y-81802974D01*
X149926262Y-81661599D01*
X149856620Y-81531306D01*
X149762896Y-81417104D01*
X149648694Y-81323380D01*
X149518401Y-81253738D01*
X149377026Y-81210852D01*
X149230000Y-81196371D01*
X149067500Y-81200000D01*
X148880000Y-81387500D01*
X148580000Y-81387500D01*
X148392500Y-81200000D01*
X148230000Y-81196371D01*
X148082974Y-81210852D01*
X147941599Y-81253738D01*
X147811306Y-81323380D01*
X147775000Y-81353176D01*
X147775000Y-80646824D01*
X147811306Y-80676620D01*
X147941599Y-80746262D01*
X148082974Y-80789148D01*
X148230000Y-80803629D01*
X148392500Y-80800000D01*
X148580000Y-80612500D01*
X148580000Y-78625000D01*
X148880000Y-78625000D01*
X148880000Y-80612500D01*
X149067500Y-80800000D01*
X149230000Y-80803629D01*
X149377026Y-80789148D01*
X149518401Y-80746262D01*
X149648694Y-80676620D01*
X149762896Y-80582896D01*
X149856620Y-80468694D01*
X149926262Y-80338401D01*
X149969148Y-80197026D01*
X149983629Y-80050000D01*
X149980000Y-78812500D01*
X149792500Y-78625000D01*
X148880000Y-78625000D01*
X148580000Y-78625000D01*
X148560000Y-78625000D01*
X148560000Y-78325000D01*
X148580000Y-78325000D01*
X148580000Y-76337500D01*
X148880000Y-76337500D01*
X148880000Y-78325000D01*
X149792500Y-78325000D01*
X149980000Y-78137500D01*
X149983629Y-76900000D01*
X149969148Y-76752974D01*
X149926262Y-76611599D01*
X149856620Y-76481306D01*
X149762896Y-76367104D01*
X149648694Y-76273380D01*
X149518401Y-76203738D01*
X149377026Y-76160852D01*
X149230000Y-76146371D01*
X149067500Y-76150000D01*
X148880000Y-76337500D01*
X148580000Y-76337500D01*
X148392500Y-76150000D01*
X148230000Y-76146371D01*
X148082974Y-76160852D01*
X147941599Y-76203738D01*
X147811306Y-76273380D01*
X147775000Y-76303176D01*
X147775000Y-75900000D01*
X150013953Y-75900000D01*
X150020001Y-75961407D01*
X150020001Y-76863159D01*
X150016372Y-76900000D01*
X150016372Y-80050000D01*
X150020001Y-80086842D01*
X150020000Y-81913162D01*
X150016372Y-81950000D01*
X150016372Y-83500439D01*
X150013953Y-83525000D01*
X150016372Y-83549561D01*
X150016372Y-85100000D01*
X150030853Y-85247026D01*
X150073739Y-85388401D01*
X150143381Y-85518693D01*
X150237105Y-85632895D01*
X150351307Y-85726619D01*
X150481599Y-85796261D01*
X150622974Y-85839147D01*
X150770000Y-85853628D01*
X151770000Y-85853628D01*
X151917026Y-85839147D01*
X152058401Y-85796261D01*
X152188693Y-85726619D01*
X152302895Y-85632895D01*
X152396619Y-85518693D01*
X152466261Y-85388401D01*
X152509147Y-85247026D01*
X152523628Y-85100000D01*
X152523628Y-84039138D01*
X152534766Y-84028000D01*
X153940109Y-84028000D01*
X153967105Y-84060895D01*
X154081307Y-84154619D01*
X154211599Y-84224261D01*
X154352974Y-84267147D01*
X154500000Y-84281628D01*
X156500000Y-84281628D01*
X156647026Y-84267147D01*
X156788401Y-84224261D01*
X156918693Y-84154619D01*
X156999999Y-84087892D01*
X157081306Y-84154620D01*
X157211599Y-84224262D01*
X157352974Y-84267148D01*
X157500000Y-84281629D01*
X158162500Y-84278000D01*
X158350000Y-84090500D01*
X158350000Y-82928000D01*
X158650000Y-82928000D01*
X158650000Y-84090500D01*
X158837500Y-84278000D01*
X159500000Y-84281629D01*
X159647026Y-84267148D01*
X159788401Y-84224262D01*
X159918694Y-84154620D01*
X160032896Y-84060896D01*
X160126620Y-83946694D01*
X160196262Y-83816401D01*
X160239148Y-83675026D01*
X160253629Y-83528000D01*
X160250000Y-83115500D01*
X160062500Y-82928000D01*
X158650000Y-82928000D01*
X158350000Y-82928000D01*
X158330000Y-82928000D01*
X158330000Y-82800000D01*
X160996371Y-82800000D01*
X161010852Y-82947026D01*
X161053738Y-83088401D01*
X161123380Y-83218694D01*
X161217104Y-83332896D01*
X161331306Y-83426620D01*
X161461599Y-83496262D01*
X161602974Y-83539148D01*
X161750000Y-83553629D01*
X161812500Y-83550000D01*
X162000000Y-83362500D01*
X162187500Y-83550000D01*
X162250000Y-83553629D01*
X162397026Y-83539148D01*
X162433775Y-83528000D01*
X163746371Y-83528000D01*
X163760852Y-83675026D01*
X163803738Y-83816401D01*
X163873380Y-83946694D01*
X163967104Y-84060896D01*
X164081306Y-84154620D01*
X164211599Y-84224262D01*
X164352974Y-84267148D01*
X164500000Y-84281629D01*
X165162500Y-84278000D01*
X165350000Y-84090500D01*
X165350000Y-82928000D01*
X163937500Y-82928000D01*
X163750000Y-83115500D01*
X163746371Y-83528000D01*
X162433775Y-83528000D01*
X162538401Y-83496262D01*
X162668694Y-83426620D01*
X162782896Y-83332896D01*
X162876620Y-83218694D01*
X162946262Y-83088401D01*
X162989148Y-82947026D01*
X163003629Y-82800000D01*
X163000000Y-82337500D01*
X162812500Y-82150000D01*
X161187500Y-82150000D01*
X161000000Y-82337500D01*
X160996371Y-82800000D01*
X158330000Y-82800000D01*
X158330000Y-82628000D01*
X158350000Y-82628000D01*
X158350000Y-81465500D01*
X158650000Y-81465500D01*
X158650000Y-82628000D01*
X160062500Y-82628000D01*
X160250000Y-82440500D01*
X160253629Y-82028000D01*
X163746371Y-82028000D01*
X163750000Y-82440500D01*
X163937500Y-82628000D01*
X165350000Y-82628000D01*
X165350000Y-81465500D01*
X165162500Y-81278000D01*
X164500000Y-81274371D01*
X164352974Y-81288852D01*
X164211599Y-81331738D01*
X164081306Y-81401380D01*
X163967104Y-81495104D01*
X163873380Y-81609306D01*
X163803738Y-81739599D01*
X163760852Y-81880974D01*
X163746371Y-82028000D01*
X160253629Y-82028000D01*
X160239148Y-81880974D01*
X160196262Y-81739599D01*
X160126620Y-81609306D01*
X160032896Y-81495104D01*
X159918694Y-81401380D01*
X159788401Y-81331738D01*
X159647026Y-81288852D01*
X159500000Y-81274371D01*
X158837500Y-81278000D01*
X158650000Y-81465500D01*
X158350000Y-81465500D01*
X158162500Y-81278000D01*
X157500000Y-81274371D01*
X157352974Y-81288852D01*
X157211599Y-81331738D01*
X157081306Y-81401380D01*
X156999999Y-81468108D01*
X156918693Y-81401381D01*
X156788401Y-81331739D01*
X156647026Y-81288853D01*
X156500000Y-81274372D01*
X154500000Y-81274372D01*
X154352974Y-81288853D01*
X154211599Y-81331739D01*
X154081307Y-81401381D01*
X153967105Y-81495105D01*
X153940109Y-81528000D01*
X152520000Y-81528000D01*
X152520000Y-80086835D01*
X152523628Y-80050000D01*
X152523628Y-76900000D01*
X152520000Y-76863165D01*
X152520000Y-76417766D01*
X153497766Y-75440000D01*
X155746371Y-75440000D01*
X155760852Y-75587026D01*
X155803738Y-75728401D01*
X155873380Y-75858694D01*
X155967104Y-75972896D01*
X156081306Y-76066620D01*
X156211599Y-76136262D01*
X156352974Y-76179148D01*
X156500000Y-76193629D01*
X158162500Y-76190000D01*
X158350000Y-76002500D01*
X158350000Y-74690000D01*
X155937500Y-74690000D01*
X155750000Y-74877500D01*
X155746371Y-75440000D01*
X153497766Y-75440000D01*
X155687767Y-73250000D01*
X155836664Y-73250000D01*
X155847354Y-73269999D01*
X155803738Y-73351599D01*
X155760852Y-73492974D01*
X155746371Y-73640000D01*
X155750000Y-74202500D01*
X155937500Y-74390000D01*
X158350000Y-74390000D01*
X158350000Y-74370000D01*
X158650000Y-74370000D01*
X158650000Y-74390000D01*
X158670000Y-74390000D01*
X158670000Y-74690000D01*
X158650000Y-74690000D01*
X158650000Y-76002500D01*
X158837500Y-76190000D01*
X160500000Y-76193629D01*
X160647026Y-76179148D01*
X160749714Y-76147998D01*
X160746371Y-76528000D01*
X160760852Y-76675026D01*
X160803738Y-76816401D01*
X160873380Y-76946694D01*
X160967104Y-77060896D01*
X161081306Y-77154620D01*
X161211599Y-77224262D01*
X161352974Y-77267148D01*
X161500000Y-77281629D01*
X162162500Y-77278000D01*
X162350000Y-77090500D01*
X162350000Y-75928000D01*
X162650000Y-75928000D01*
X162650000Y-77090500D01*
X162837500Y-77278000D01*
X163500000Y-77281629D01*
X163647026Y-77267148D01*
X163788401Y-77224262D01*
X163918694Y-77154620D01*
X164000000Y-77087893D01*
X164081306Y-77154620D01*
X164211599Y-77224262D01*
X164352974Y-77267148D01*
X164500000Y-77281629D01*
X165162500Y-77278000D01*
X165350000Y-77090500D01*
X165350000Y-75928000D01*
X162650000Y-75928000D01*
X162350000Y-75928000D01*
X162330000Y-75928000D01*
X162330000Y-75628000D01*
X162350000Y-75628000D01*
X162350000Y-74465500D01*
X162650000Y-74465500D01*
X162650000Y-75628000D01*
X165350000Y-75628000D01*
X165350000Y-74465500D01*
X165162500Y-74278000D01*
X164500000Y-74274371D01*
X164352974Y-74288852D01*
X164211599Y-74331738D01*
X164081306Y-74401380D01*
X164000000Y-74468107D01*
X163918694Y-74401380D01*
X163788401Y-74331738D01*
X163647026Y-74288852D01*
X163500000Y-74274371D01*
X162837500Y-74278000D01*
X162650000Y-74465500D01*
X162350000Y-74465500D01*
X162162500Y-74278000D01*
X161500000Y-74274371D01*
X161352974Y-74288852D01*
X161211599Y-74331738D01*
X161102601Y-74389998D01*
X161062502Y-74389998D01*
X161250000Y-74202500D01*
X161253365Y-73680931D01*
X161352974Y-73711147D01*
X161500000Y-73725628D01*
X163500000Y-73725628D01*
X163647026Y-73711147D01*
X163788401Y-73668261D01*
X163918693Y-73598619D01*
X164000000Y-73531891D01*
X164081307Y-73598619D01*
X164211599Y-73668261D01*
X164352974Y-73711147D01*
X164500000Y-73725628D01*
X166500000Y-73725628D01*
X166647026Y-73711147D01*
X166788401Y-73668261D01*
X166918693Y-73598619D01*
X167032895Y-73504895D01*
X167101532Y-73421261D01*
X167101532Y-74578736D01*
X167032896Y-74495104D01*
X166918694Y-74401380D01*
X166788401Y-74331738D01*
X166647026Y-74288852D01*
X166500000Y-74274371D01*
X165837500Y-74278000D01*
X165650000Y-74465500D01*
X165650000Y-75628000D01*
X165670000Y-75628000D01*
X165670000Y-75928000D01*
X165650000Y-75928000D01*
X165650000Y-77090500D01*
X165837500Y-77278000D01*
X166500000Y-77281629D01*
X166647026Y-77267148D01*
X166788401Y-77224262D01*
X166918694Y-77154620D01*
X167032896Y-77060896D01*
X167126620Y-76946694D01*
X167196262Y-76816401D01*
X167239148Y-76675026D01*
X167253629Y-76528000D01*
X167250000Y-76115500D01*
X167062502Y-75928002D01*
X167250000Y-75928002D01*
X167250000Y-75892701D01*
X167322265Y-75980755D01*
X167436467Y-76074479D01*
X167566759Y-76144121D01*
X167708134Y-76187007D01*
X167855160Y-76201488D01*
X168355160Y-76201488D01*
X168502186Y-76187007D01*
X168643561Y-76144121D01*
X168740160Y-76092488D01*
X168836759Y-76144121D01*
X168978134Y-76187007D01*
X169125160Y-76201488D01*
X169625160Y-76201488D01*
X169772186Y-76187007D01*
X169913561Y-76144121D01*
X170008890Y-76093167D01*
X170104219Y-76144121D01*
X170125648Y-76150621D01*
X168474131Y-77802139D01*
X166837792Y-77802139D01*
X166788401Y-77775739D01*
X166647026Y-77732853D01*
X166500000Y-77718372D01*
X164500000Y-77718372D01*
X164352974Y-77732853D01*
X164211599Y-77775739D01*
X164081307Y-77845381D01*
X163967105Y-77939105D01*
X163921443Y-77994744D01*
X163896221Y-77911599D01*
X163826579Y-77781307D01*
X163732855Y-77667105D01*
X163618653Y-77573381D01*
X163488361Y-77503739D01*
X163346986Y-77460853D01*
X163199960Y-77446372D01*
X162699960Y-77446372D01*
X162552934Y-77460853D01*
X162411559Y-77503739D01*
X162281267Y-77573381D01*
X162167065Y-77667105D01*
X162073341Y-77781307D01*
X162003699Y-77911599D01*
X162000000Y-77923793D01*
X161996301Y-77911599D01*
X161926659Y-77781307D01*
X161832935Y-77667105D01*
X161718733Y-77573381D01*
X161588441Y-77503739D01*
X161447066Y-77460853D01*
X161300040Y-77446372D01*
X160800040Y-77446372D01*
X160653014Y-77460853D01*
X160511639Y-77503739D01*
X160381347Y-77573381D01*
X160267145Y-77667105D01*
X160173421Y-77781307D01*
X160103779Y-77911599D01*
X160085456Y-77972000D01*
X160059891Y-77972000D01*
X160032895Y-77939105D01*
X159918693Y-77845381D01*
X159788401Y-77775739D01*
X159647026Y-77732853D01*
X159500000Y-77718372D01*
X157500000Y-77718372D01*
X157352974Y-77732853D01*
X157211599Y-77775739D01*
X157081307Y-77845381D01*
X157000000Y-77912109D01*
X156918693Y-77845381D01*
X156788401Y-77775739D01*
X156647026Y-77732853D01*
X156500000Y-77718372D01*
X154500000Y-77718372D01*
X154352974Y-77732853D01*
X154211599Y-77775739D01*
X154081307Y-77845381D01*
X153967105Y-77939105D01*
X153873381Y-78053307D01*
X153803739Y-78183599D01*
X153760853Y-78324974D01*
X153746372Y-78472000D01*
X153746372Y-79972000D01*
X153760853Y-80119026D01*
X153803739Y-80260401D01*
X153873381Y-80390693D01*
X153967105Y-80504895D01*
X154081307Y-80598619D01*
X154211599Y-80668261D01*
X154352974Y-80711147D01*
X154500000Y-80725628D01*
X156500000Y-80725628D01*
X156647026Y-80711147D01*
X156788401Y-80668261D01*
X156918693Y-80598619D01*
X157000000Y-80531891D01*
X157081307Y-80598619D01*
X157211599Y-80668261D01*
X157352974Y-80711147D01*
X157500000Y-80725628D01*
X159500000Y-80725628D01*
X159647026Y-80711147D01*
X159788401Y-80668261D01*
X159918693Y-80598619D01*
X160032895Y-80504895D01*
X160059891Y-80472000D01*
X160466250Y-80472000D01*
X160511639Y-80496261D01*
X160653014Y-80539147D01*
X160800040Y-80553628D01*
X161300040Y-80553628D01*
X161383671Y-80545391D01*
X161331306Y-80573380D01*
X161217104Y-80667104D01*
X161123380Y-80781306D01*
X161053738Y-80911599D01*
X161010852Y-81052974D01*
X160996371Y-81200000D01*
X161000000Y-81662500D01*
X161187500Y-81850000D01*
X162812500Y-81850000D01*
X163000000Y-81662500D01*
X163003629Y-81200000D01*
X162989148Y-81052974D01*
X162946262Y-80911599D01*
X162876620Y-80781306D01*
X162782896Y-80667104D01*
X162668694Y-80573380D01*
X162616329Y-80545391D01*
X162699960Y-80553628D01*
X163199960Y-80553628D01*
X163346986Y-80539147D01*
X163488361Y-80496261D01*
X163618653Y-80426619D01*
X163732855Y-80332895D01*
X163800665Y-80250269D01*
X163803739Y-80260401D01*
X163873381Y-80390693D01*
X163967105Y-80504895D01*
X164081307Y-80598619D01*
X164211599Y-80668261D01*
X164352974Y-80711147D01*
X164500000Y-80725628D01*
X166500000Y-80725628D01*
X166647026Y-80711147D01*
X166788401Y-80668261D01*
X166918693Y-80598619D01*
X167032895Y-80504895D01*
X167091372Y-80433641D01*
X167091372Y-81566357D01*
X167032896Y-81495104D01*
X166918694Y-81401380D01*
X166788401Y-81331738D01*
X166647026Y-81288852D01*
X166500000Y-81274371D01*
X165837500Y-81278000D01*
X165650000Y-81465500D01*
X165650000Y-82628000D01*
X165670000Y-82628000D01*
X165670000Y-82928000D01*
X165650000Y-82928000D01*
X165650000Y-84090500D01*
X165837500Y-84278000D01*
X166500000Y-84281629D01*
X166529016Y-84278771D01*
X165561024Y-85246764D01*
X165417974Y-85260853D01*
X165276599Y-85303739D01*
X165146307Y-85373381D01*
X165032105Y-85467105D01*
X164938381Y-85581307D01*
X164920000Y-85615696D01*
X164901619Y-85581307D01*
X164807895Y-85467105D01*
X164693693Y-85373381D01*
X164563401Y-85303739D01*
X164422026Y-85260853D01*
X164275000Y-85246372D01*
X163025000Y-85246372D01*
X162877974Y-85260853D01*
X162736599Y-85303739D01*
X162606307Y-85373381D01*
X162492105Y-85467105D01*
X162398381Y-85581307D01*
X162328739Y-85711599D01*
X162285853Y-85852974D01*
X162271372Y-86000000D01*
X162271372Y-89000000D01*
X162285853Y-89147026D01*
X162328739Y-89288401D01*
X162398381Y-89418693D01*
X162492105Y-89532895D01*
X162606307Y-89626619D01*
X162736599Y-89696261D01*
X162877974Y-89739147D01*
X163025000Y-89753628D01*
X164275000Y-89753628D01*
X164422026Y-89739147D01*
X164563401Y-89696261D01*
X164693693Y-89626619D01*
X164807895Y-89532895D01*
X164901619Y-89418693D01*
X164920000Y-89384304D01*
X164938381Y-89418693D01*
X165032105Y-89532895D01*
X165146307Y-89626619D01*
X165276599Y-89696261D01*
X165417974Y-89739147D01*
X165565000Y-89753628D01*
X166815000Y-89753628D01*
X166962026Y-89739147D01*
X167103401Y-89696261D01*
X167233693Y-89626619D01*
X167347895Y-89532895D01*
X167441619Y-89418693D01*
X167460000Y-89384304D01*
X167478381Y-89418693D01*
X167572105Y-89532895D01*
X167686307Y-89626619D01*
X167816599Y-89696261D01*
X167957974Y-89739147D01*
X168105000Y-89753628D01*
X169355000Y-89753628D01*
X169502026Y-89739147D01*
X169643401Y-89696261D01*
X169773693Y-89626619D01*
X169887895Y-89532895D01*
X169981619Y-89418693D01*
X170000000Y-89384304D01*
X170018381Y-89418693D01*
X170112105Y-89532895D01*
X170226307Y-89626619D01*
X170356599Y-89696261D01*
X170497974Y-89739147D01*
X170645000Y-89753628D01*
X171895000Y-89753628D01*
X172042026Y-89739147D01*
X172183401Y-89696261D01*
X172313693Y-89626619D01*
X172427895Y-89532895D01*
X172521619Y-89418693D01*
X172540000Y-89384304D01*
X172558381Y-89418693D01*
X172652105Y-89532895D01*
X172766307Y-89626619D01*
X172896599Y-89696261D01*
X173037974Y-89739147D01*
X173185000Y-89753628D01*
X174435000Y-89753628D01*
X174582026Y-89739147D01*
X174723401Y-89696261D01*
X174853693Y-89626619D01*
X174967895Y-89532895D01*
X175061619Y-89418693D01*
X175079999Y-89384306D01*
X175098380Y-89418694D01*
X175192104Y-89532896D01*
X175306306Y-89626620D01*
X175436599Y-89696262D01*
X175577974Y-89739148D01*
X175725000Y-89753629D01*
X176012500Y-89750000D01*
X176200000Y-89562500D01*
X176200000Y-87650000D01*
X176500000Y-87650000D01*
X176500000Y-89562500D01*
X176687500Y-89750000D01*
X176975000Y-89753629D01*
X177122026Y-89739148D01*
X177263401Y-89696262D01*
X177393694Y-89626620D01*
X177507896Y-89532896D01*
X177601620Y-89418694D01*
X177671262Y-89288401D01*
X177714148Y-89147026D01*
X177728629Y-89000000D01*
X177725000Y-87837500D01*
X177537500Y-87650000D01*
X176500000Y-87650000D01*
X176200000Y-87650000D01*
X176180000Y-87650000D01*
X176180000Y-87350000D01*
X176200000Y-87350000D01*
X176200000Y-85437500D01*
X176500000Y-85437500D01*
X176500000Y-87350000D01*
X177537500Y-87350000D01*
X177725000Y-87162500D01*
X177728629Y-86000000D01*
X177714148Y-85852974D01*
X177671262Y-85711599D01*
X177601620Y-85581306D01*
X177507896Y-85467104D01*
X177393694Y-85373380D01*
X177263401Y-85303738D01*
X177122026Y-85260852D01*
X176975000Y-85246371D01*
X176687500Y-85250000D01*
X176500000Y-85437500D01*
X176200000Y-85437500D01*
X176012500Y-85250000D01*
X175725000Y-85246371D01*
X175577974Y-85260852D01*
X175436599Y-85303738D01*
X175306306Y-85373380D01*
X175192104Y-85467104D01*
X175098380Y-85581306D01*
X175079999Y-85615694D01*
X175061619Y-85581307D01*
X174967895Y-85467105D01*
X174853693Y-85373381D01*
X174723401Y-85303739D01*
X174582026Y-85260853D01*
X174435000Y-85246372D01*
X173237010Y-85246372D01*
X173267147Y-85147026D01*
X173281628Y-85000000D01*
X173281628Y-83000000D01*
X173267147Y-82852974D01*
X173224261Y-82711599D01*
X173154619Y-82581307D01*
X173060895Y-82467105D01*
X172946693Y-82373381D01*
X172816401Y-82303739D01*
X172701221Y-82268799D01*
X172781620Y-82170834D01*
X172851262Y-82040541D01*
X172894148Y-81899166D01*
X172908629Y-81752140D01*
X172905000Y-80989640D01*
X172717502Y-80802142D01*
X172905000Y-80802142D01*
X172905000Y-80772272D01*
X173000000Y-80781629D01*
X173662500Y-80778000D01*
X173850000Y-80590500D01*
X173850000Y-79428000D01*
X174150000Y-79428000D01*
X174150000Y-80590500D01*
X174337500Y-80778000D01*
X175000000Y-80781629D01*
X175147026Y-80767148D01*
X175288401Y-80724262D01*
X175418694Y-80654620D01*
X175532896Y-80560896D01*
X175626620Y-80446694D01*
X175696262Y-80316401D01*
X175739148Y-80175026D01*
X175753629Y-80028000D01*
X175750000Y-79615500D01*
X175562500Y-79428000D01*
X174150000Y-79428000D01*
X173850000Y-79428000D01*
X173830000Y-79428000D01*
X173830000Y-79128000D01*
X173850000Y-79128000D01*
X173850000Y-79108000D01*
X174150000Y-79108000D01*
X174150000Y-79128000D01*
X175562500Y-79128000D01*
X175750000Y-78940500D01*
X175751430Y-78777999D01*
X177746372Y-78777999D01*
X177746372Y-79050000D01*
X177760853Y-79197026D01*
X177803739Y-79338401D01*
X177873381Y-79468693D01*
X177967105Y-79582895D01*
X178081307Y-79676619D01*
X178211599Y-79746261D01*
X178352974Y-79789147D01*
X178500000Y-79803628D01*
X180500000Y-79803628D01*
X180647026Y-79789147D01*
X180788401Y-79746261D01*
X180900002Y-79686610D01*
X180900001Y-81199999D01*
X178649121Y-81199999D01*
X178600001Y-81195161D01*
X178550881Y-81199999D01*
X178403967Y-81214469D01*
X178215466Y-81271650D01*
X178041743Y-81364507D01*
X177889473Y-81489471D01*
X177858155Y-81527632D01*
X177677636Y-81708152D01*
X177639472Y-81739472D01*
X177514508Y-81891742D01*
X177441677Y-82028000D01*
X177421651Y-82065466D01*
X177364470Y-82253966D01*
X177361875Y-82280317D01*
X177281307Y-82323381D01*
X177167105Y-82417105D01*
X177073381Y-82531307D01*
X177003739Y-82661599D01*
X176960853Y-82802974D01*
X176946372Y-82950000D01*
X176946372Y-84250000D01*
X176960853Y-84397026D01*
X177003739Y-84538401D01*
X177073381Y-84668693D01*
X177167105Y-84782895D01*
X177281307Y-84876619D01*
X177411599Y-84946261D01*
X177552974Y-84989147D01*
X177700000Y-85003628D01*
X179000000Y-85003628D01*
X179147026Y-84989147D01*
X179288401Y-84946261D01*
X179418693Y-84876619D01*
X179499999Y-84809892D01*
X179581306Y-84876620D01*
X179711599Y-84946262D01*
X179852974Y-84989148D01*
X180000000Y-85003629D01*
X180312500Y-85000000D01*
X180500000Y-84812500D01*
X180500000Y-83750000D01*
X180480000Y-83750000D01*
X180480000Y-83450000D01*
X180500000Y-83450000D01*
X180500000Y-83430000D01*
X180800000Y-83430000D01*
X180800000Y-83450000D01*
X180820000Y-83450000D01*
X180820000Y-83750000D01*
X180800000Y-83750000D01*
X180800000Y-84812500D01*
X180987500Y-85000000D01*
X181300000Y-85003629D01*
X181447026Y-84989148D01*
X181588401Y-84946262D01*
X181718694Y-84876620D01*
X181832896Y-84782896D01*
X181926620Y-84668694D01*
X181996262Y-84538401D01*
X182039148Y-84397026D01*
X182053629Y-84250000D01*
X182050000Y-83937500D01*
X181862502Y-83750002D01*
X182035792Y-83750002D01*
X184808158Y-86522369D01*
X184839475Y-86560529D01*
X184991745Y-86685493D01*
X185165468Y-86778350D01*
X185353969Y-86835531D01*
X185500883Y-86850001D01*
X185500884Y-86850001D01*
X185550002Y-86854839D01*
X185599120Y-86850001D01*
X188970879Y-86850001D01*
X189019999Y-86854839D01*
X189069119Y-86850001D01*
X189216033Y-86835531D01*
X189404534Y-86778350D01*
X189578257Y-86685493D01*
X189730527Y-86560529D01*
X189761847Y-86522365D01*
X189942367Y-86341846D01*
X189980528Y-86310528D01*
X190105492Y-86158258D01*
X190198349Y-85984535D01*
X190255530Y-85796034D01*
X190268846Y-85660839D01*
X190302895Y-85632895D01*
X190396619Y-85518693D01*
X190466261Y-85388401D01*
X190509147Y-85247026D01*
X190523628Y-85100000D01*
X190523628Y-81950000D01*
X190509147Y-81802974D01*
X190466261Y-81661599D01*
X190396619Y-81531307D01*
X190302895Y-81417105D01*
X190270000Y-81390109D01*
X190270000Y-80609891D01*
X190302895Y-80582895D01*
X190396619Y-80468693D01*
X190466261Y-80338401D01*
X190509147Y-80197026D01*
X190523628Y-80050000D01*
X190523628Y-76900000D01*
X190509147Y-76752974D01*
X190466261Y-76611599D01*
X190396619Y-76481307D01*
X190302895Y-76367105D01*
X190188693Y-76273381D01*
X190058401Y-76203739D01*
X189917026Y-76160853D01*
X189770000Y-76146372D01*
X188770000Y-76146372D01*
X188622974Y-76160853D01*
X188481599Y-76203739D01*
X188351307Y-76273381D01*
X188237105Y-76367105D01*
X188143381Y-76481307D01*
X188073739Y-76611599D01*
X188030853Y-76752974D01*
X188016372Y-76900000D01*
X188016372Y-80050000D01*
X188030853Y-80197026D01*
X188073739Y-80338401D01*
X188143381Y-80468693D01*
X188237105Y-80582895D01*
X188270000Y-80609892D01*
X188270001Y-81390108D01*
X188237105Y-81417105D01*
X188143381Y-81531307D01*
X188073739Y-81661599D01*
X188030853Y-81802974D01*
X188016372Y-81950000D01*
X188016372Y-84850001D01*
X187983628Y-84850001D01*
X187983628Y-81950000D01*
X187969147Y-81802974D01*
X187926261Y-81661599D01*
X187856619Y-81531307D01*
X187762895Y-81417105D01*
X187730000Y-81390109D01*
X187730000Y-80609891D01*
X187762895Y-80582895D01*
X187856619Y-80468693D01*
X187926261Y-80338401D01*
X187969147Y-80197026D01*
X187983628Y-80050000D01*
X187983628Y-76900000D01*
X187969147Y-76752974D01*
X187926261Y-76611599D01*
X187856619Y-76481307D01*
X187762895Y-76367105D01*
X187648693Y-76273381D01*
X187518401Y-76203739D01*
X187377026Y-76160853D01*
X187230000Y-76146372D01*
X186230000Y-76146372D01*
X186082974Y-76160853D01*
X185941599Y-76203739D01*
X185896864Y-76227650D01*
X184945470Y-75276257D01*
X185000000Y-75281628D01*
X187000000Y-75281628D01*
X187147026Y-75267147D01*
X187288401Y-75224261D01*
X187418693Y-75154619D01*
X187532895Y-75060895D01*
X187626619Y-74946693D01*
X187696261Y-74816401D01*
X187707910Y-74778000D01*
X188292090Y-74778000D01*
X188303739Y-74816401D01*
X188373381Y-74946693D01*
X188467105Y-75060895D01*
X188581307Y-75154619D01*
X188711599Y-75224261D01*
X188852974Y-75267147D01*
X189000000Y-75281628D01*
X191000000Y-75281628D01*
X191147026Y-75267147D01*
X191288401Y-75224261D01*
X191418693Y-75154619D01*
X191532895Y-75060895D01*
X191626619Y-74946693D01*
X191696261Y-74816401D01*
X191739147Y-74675026D01*
X191753628Y-74528000D01*
X191753628Y-73028000D01*
X191739147Y-72880974D01*
X191696261Y-72739599D01*
X191626619Y-72609307D01*
X191532895Y-72495105D01*
X191418693Y-72401381D01*
X191288401Y-72331739D01*
X191147026Y-72288853D01*
X191000000Y-72274372D01*
X189361840Y-72274372D01*
X189910585Y-71725628D01*
X191000000Y-71725628D01*
X191147026Y-71711147D01*
X191288401Y-71668261D01*
X191418693Y-71598619D01*
X191532895Y-71504895D01*
X191626619Y-71390693D01*
X191696261Y-71260401D01*
X191739147Y-71119026D01*
X191753628Y-70972000D01*
X191753628Y-69472000D01*
X191739147Y-69324974D01*
X191696261Y-69183599D01*
X191626619Y-69053307D01*
X191532895Y-68939105D01*
X191418693Y-68845381D01*
X191288401Y-68775739D01*
X191147026Y-68732853D01*
X191000000Y-68718372D01*
X189000000Y-68718372D01*
X188852974Y-68732853D01*
X188711599Y-68775739D01*
X188581307Y-68845381D01*
X188467105Y-68939105D01*
X188373381Y-69053307D01*
X188303739Y-69183599D01*
X188260853Y-69324974D01*
X188246372Y-69472000D01*
X188246372Y-70561415D01*
X188085787Y-70722001D01*
X187751430Y-70722001D01*
X187750000Y-70559500D01*
X187562500Y-70372000D01*
X186150000Y-70372000D01*
X186150000Y-70392000D01*
X185850000Y-70392000D01*
X185850000Y-70372000D01*
X184437500Y-70372000D01*
X184250000Y-70559500D01*
X184248570Y-70722001D01*
X182136214Y-70722001D01*
X181741848Y-70327636D01*
X181710528Y-70289472D01*
X181558258Y-70164508D01*
X181384535Y-70071651D01*
X181196034Y-70014470D01*
X181049120Y-70000000D01*
X181000000Y-69995162D01*
X180950880Y-70000000D01*
X171172137Y-70000000D01*
X171123019Y-69995162D01*
X171073901Y-70000000D01*
X171073900Y-70000000D01*
X170926986Y-70014470D01*
X170738485Y-70071651D01*
X170564762Y-70164508D01*
X170412492Y-70289472D01*
X170381175Y-70327632D01*
X169098490Y-71610318D01*
X169090690Y-71531124D01*
X169033509Y-71342623D01*
X168940652Y-71168900D01*
X168847000Y-71054784D01*
X168815688Y-71016630D01*
X168777534Y-70985318D01*
X167264215Y-69472000D01*
X184246371Y-69472000D01*
X184250000Y-69884500D01*
X184437500Y-70072000D01*
X185850000Y-70072000D01*
X185850000Y-68909500D01*
X186150000Y-68909500D01*
X186150000Y-70072000D01*
X187562500Y-70072000D01*
X187750000Y-69884500D01*
X187753629Y-69472000D01*
X187739148Y-69324974D01*
X187696262Y-69183599D01*
X187626620Y-69053306D01*
X187532896Y-68939104D01*
X187418694Y-68845380D01*
X187288401Y-68775738D01*
X187147026Y-68732852D01*
X187000000Y-68718371D01*
X186337500Y-68722000D01*
X186150000Y-68909500D01*
X185850000Y-68909500D01*
X185662500Y-68722000D01*
X185000000Y-68718371D01*
X184852974Y-68732852D01*
X184711599Y-68775738D01*
X184581306Y-68845380D01*
X184467104Y-68939104D01*
X184373380Y-69053306D01*
X184303738Y-69183599D01*
X184260852Y-69324974D01*
X184246371Y-69472000D01*
X167264215Y-69472000D01*
X166579851Y-68787637D01*
X166548530Y-68749472D01*
X166396260Y-68624508D01*
X166222537Y-68531651D01*
X166034036Y-68474470D01*
X165887122Y-68460000D01*
X165838002Y-68455162D01*
X165788882Y-68460000D01*
X161243779Y-68460000D01*
X161239147Y-68412974D01*
X161196261Y-68271599D01*
X161126619Y-68141307D01*
X161032895Y-68027105D01*
X160918693Y-67933381D01*
X160788401Y-67863739D01*
X160647026Y-67820853D01*
X160500000Y-67806372D01*
X156500000Y-67806372D01*
X156352974Y-67820853D01*
X156211599Y-67863739D01*
X156081307Y-67933381D01*
X155967105Y-68027105D01*
X155873381Y-68141307D01*
X155803739Y-68271599D01*
X155760853Y-68412974D01*
X155746372Y-68560000D01*
X155746372Y-70360000D01*
X155760853Y-70507026D01*
X155803739Y-70648401D01*
X155847354Y-70730000D01*
X155836664Y-70750000D01*
X155231398Y-70750000D01*
X155170000Y-70743953D01*
X155108602Y-70750000D01*
X155108595Y-70750000D01*
X154924957Y-70768087D01*
X154689331Y-70839563D01*
X154472177Y-70955634D01*
X154281840Y-71111840D01*
X154242696Y-71159537D01*
X150429538Y-74972696D01*
X150381841Y-75011840D01*
X150225635Y-75202177D01*
X150213831Y-75224261D01*
X150109563Y-75419332D01*
X150038087Y-75654958D01*
X150013953Y-75900000D01*
X147775000Y-75900000D01*
X147775000Y-65037902D01*
X147821021Y-64568552D01*
X147946322Y-64153535D01*
X148149845Y-63770761D01*
X148423842Y-63434808D01*
X148757876Y-63158471D01*
X149139219Y-62952280D01*
X149553349Y-62824085D01*
X150020370Y-62775000D01*
X151192857Y-62775000D01*
X151192857Y-63271393D01*
%TA.AperFunction,Conductor*%
D22*
G36*
X151192857Y-63271393D02*
G01*
X150994723Y-63139004D01*
X150612547Y-62980702D01*
X150206832Y-62900000D01*
X149793168Y-62900000D01*
X149387453Y-62980702D01*
X149005277Y-63139004D01*
X148661328Y-63368823D01*
X148368823Y-63661328D01*
X148139004Y-64005277D01*
X147980702Y-64387453D01*
X147900000Y-64793168D01*
X147900000Y-65206832D01*
X147980702Y-65612547D01*
X148139004Y-65994723D01*
X148368823Y-66338672D01*
X148661328Y-66631177D01*
X149005277Y-66860996D01*
X149387453Y-67019298D01*
X149793168Y-67100000D01*
X150206832Y-67100000D01*
X150612547Y-67019298D01*
X150994723Y-66860996D01*
X151192857Y-66728607D01*
X151192857Y-67000000D01*
X188807143Y-67000000D01*
X188807143Y-66728607D01*
X189005277Y-66860996D01*
X189387453Y-67019298D01*
X189793168Y-67100000D01*
X190206832Y-67100000D01*
X190612547Y-67019298D01*
X190994723Y-66860996D01*
X191338672Y-66631177D01*
X191631177Y-66338672D01*
X191860996Y-65994723D01*
X192019298Y-65612547D01*
X192100000Y-65206832D01*
X192100000Y-64793168D01*
X192019298Y-64387453D01*
X191860996Y-64005277D01*
X191631177Y-63661328D01*
X191338672Y-63368823D01*
X190994723Y-63139004D01*
X190612547Y-62980702D01*
X190206832Y-62900000D01*
X189793168Y-62900000D01*
X189387453Y-62980702D01*
X189005277Y-63139004D01*
X188807143Y-63271393D01*
X188807143Y-62775000D01*
X189962098Y-62775000D01*
X190431448Y-62821021D01*
X190846465Y-62946322D01*
X191229239Y-63149845D01*
X191565192Y-63423842D01*
X191841529Y-63757876D01*
X192047720Y-64139219D01*
X192175915Y-64553349D01*
X192225001Y-65020380D01*
X192225000Y-89962098D01*
X192178980Y-90431447D01*
X192053679Y-90846465D01*
X191850152Y-91229243D01*
X191576159Y-91565191D01*
X191242124Y-91841529D01*
X190860784Y-92047718D01*
X190446650Y-92175915D01*
X189979638Y-92225000D01*
X150037902Y-92225000D01*
X149568553Y-92178980D01*
X149153535Y-92053679D01*
X148770757Y-91850152D01*
X148434809Y-91576159D01*
X148158471Y-91242124D01*
X147952282Y-90860784D01*
X147824085Y-90446650D01*
X147775000Y-89979638D01*
X147775000Y-89793168D01*
X147900000Y-89793168D01*
X147900000Y-90206832D01*
X147980702Y-90612547D01*
X148139004Y-90994723D01*
X148368823Y-91338672D01*
X148661328Y-91631177D01*
X149005277Y-91860996D01*
X149387453Y-92019298D01*
X149793168Y-92100000D01*
X150206832Y-92100000D01*
X150612547Y-92019298D01*
X150994723Y-91860996D01*
X151338672Y-91631177D01*
X151631177Y-91338672D01*
X151860996Y-90994723D01*
X152019298Y-90612547D01*
X152100000Y-90206832D01*
X152100000Y-89793168D01*
X187900000Y-89793168D01*
X187900000Y-90206832D01*
X187980702Y-90612547D01*
X188139004Y-90994723D01*
X188368823Y-91338672D01*
X188661328Y-91631177D01*
X189005277Y-91860996D01*
X189387453Y-92019298D01*
X189793168Y-92100000D01*
X190206832Y-92100000D01*
X190612547Y-92019298D01*
X190994723Y-91860996D01*
X191338672Y-91631177D01*
X191631177Y-91338672D01*
X191860996Y-90994723D01*
X192019298Y-90612547D01*
X192100000Y-90206832D01*
X192100000Y-89793168D01*
X192019298Y-89387453D01*
X191860996Y-89005277D01*
X191631177Y-88661328D01*
X191338672Y-88368823D01*
X190994723Y-88139004D01*
X190612547Y-87980702D01*
X190206832Y-87900000D01*
X189793168Y-87900000D01*
X189387453Y-87980702D01*
X189005277Y-88139004D01*
X188661328Y-88368823D01*
X188368823Y-88661328D01*
X188139004Y-89005277D01*
X187980702Y-89387453D01*
X187900000Y-89793168D01*
X152100000Y-89793168D01*
X152019298Y-89387453D01*
X151860996Y-89005277D01*
X151631177Y-88661328D01*
X151338672Y-88368823D01*
X150994723Y-88139004D01*
X150612547Y-87980702D01*
X150206832Y-87900000D01*
X149793168Y-87900000D01*
X149387453Y-87980702D01*
X149005277Y-88139004D01*
X148661328Y-88368823D01*
X148368823Y-88661328D01*
X148139004Y-89005277D01*
X147980702Y-89387453D01*
X147900000Y-89793168D01*
X147775000Y-89793168D01*
X147775000Y-85696824D01*
X147811306Y-85726620D01*
X147941599Y-85796262D01*
X148082974Y-85839148D01*
X148230000Y-85853629D01*
X148392500Y-85850000D01*
X148580000Y-85662500D01*
X148580000Y-83675000D01*
X148880000Y-83675000D01*
X148880000Y-85662500D01*
X149067500Y-85850000D01*
X149230000Y-85853629D01*
X149377026Y-85839148D01*
X149518401Y-85796262D01*
X149648694Y-85726620D01*
X149762896Y-85632896D01*
X149856620Y-85518694D01*
X149926262Y-85388401D01*
X149969148Y-85247026D01*
X149983629Y-85100000D01*
X149980000Y-83862500D01*
X149792500Y-83675000D01*
X148880000Y-83675000D01*
X148580000Y-83675000D01*
X148560000Y-83675000D01*
X148560000Y-83375000D01*
X148580000Y-83375000D01*
X148580000Y-81387500D01*
X148880000Y-81387500D01*
X148880000Y-83375000D01*
X149792500Y-83375000D01*
X149980000Y-83187500D01*
X149983629Y-81950000D01*
X149969148Y-81802974D01*
X149926262Y-81661599D01*
X149856620Y-81531306D01*
X149762896Y-81417104D01*
X149648694Y-81323380D01*
X149518401Y-81253738D01*
X149377026Y-81210852D01*
X149230000Y-81196371D01*
X149067500Y-81200000D01*
X148880000Y-81387500D01*
X148580000Y-81387500D01*
X148392500Y-81200000D01*
X148230000Y-81196371D01*
X148082974Y-81210852D01*
X147941599Y-81253738D01*
X147811306Y-81323380D01*
X147775000Y-81353176D01*
X147775000Y-80646824D01*
X147811306Y-80676620D01*
X147941599Y-80746262D01*
X148082974Y-80789148D01*
X148230000Y-80803629D01*
X148392500Y-80800000D01*
X148580000Y-80612500D01*
X148580000Y-78625000D01*
X148880000Y-78625000D01*
X148880000Y-80612500D01*
X149067500Y-80800000D01*
X149230000Y-80803629D01*
X149377026Y-80789148D01*
X149518401Y-80746262D01*
X149648694Y-80676620D01*
X149762896Y-80582896D01*
X149856620Y-80468694D01*
X149926262Y-80338401D01*
X149969148Y-80197026D01*
X149983629Y-80050000D01*
X149980000Y-78812500D01*
X149792500Y-78625000D01*
X148880000Y-78625000D01*
X148580000Y-78625000D01*
X148560000Y-78625000D01*
X148560000Y-78325000D01*
X148580000Y-78325000D01*
X148580000Y-76337500D01*
X148880000Y-76337500D01*
X148880000Y-78325000D01*
X149792500Y-78325000D01*
X149980000Y-78137500D01*
X149983629Y-76900000D01*
X149969148Y-76752974D01*
X149926262Y-76611599D01*
X149856620Y-76481306D01*
X149762896Y-76367104D01*
X149648694Y-76273380D01*
X149518401Y-76203738D01*
X149377026Y-76160852D01*
X149230000Y-76146371D01*
X149067500Y-76150000D01*
X148880000Y-76337500D01*
X148580000Y-76337500D01*
X148392500Y-76150000D01*
X148230000Y-76146371D01*
X148082974Y-76160852D01*
X147941599Y-76203738D01*
X147811306Y-76273380D01*
X147775000Y-76303176D01*
X147775000Y-75900000D01*
X150013953Y-75900000D01*
X150020001Y-75961407D01*
X150020001Y-76863159D01*
X150016372Y-76900000D01*
X150016372Y-80050000D01*
X150020001Y-80086842D01*
X150020000Y-81913162D01*
X150016372Y-81950000D01*
X150016372Y-83500439D01*
X150013953Y-83525000D01*
X150016372Y-83549561D01*
X150016372Y-85100000D01*
X150030853Y-85247026D01*
X150073739Y-85388401D01*
X150143381Y-85518693D01*
X150237105Y-85632895D01*
X150351307Y-85726619D01*
X150481599Y-85796261D01*
X150622974Y-85839147D01*
X150770000Y-85853628D01*
X151770000Y-85853628D01*
X151917026Y-85839147D01*
X152058401Y-85796261D01*
X152188693Y-85726619D01*
X152302895Y-85632895D01*
X152396619Y-85518693D01*
X152466261Y-85388401D01*
X152509147Y-85247026D01*
X152523628Y-85100000D01*
X152523628Y-84039138D01*
X152534766Y-84028000D01*
X153940109Y-84028000D01*
X153967105Y-84060895D01*
X154081307Y-84154619D01*
X154211599Y-84224261D01*
X154352974Y-84267147D01*
X154500000Y-84281628D01*
X156500000Y-84281628D01*
X156647026Y-84267147D01*
X156788401Y-84224261D01*
X156918693Y-84154619D01*
X156999999Y-84087892D01*
X157081306Y-84154620D01*
X157211599Y-84224262D01*
X157352974Y-84267148D01*
X157500000Y-84281629D01*
X158162500Y-84278000D01*
X158350000Y-84090500D01*
X158350000Y-82928000D01*
X158650000Y-82928000D01*
X158650000Y-84090500D01*
X158837500Y-84278000D01*
X159500000Y-84281629D01*
X159647026Y-84267148D01*
X159788401Y-84224262D01*
X159918694Y-84154620D01*
X160032896Y-84060896D01*
X160126620Y-83946694D01*
X160196262Y-83816401D01*
X160239148Y-83675026D01*
X160253629Y-83528000D01*
X160250000Y-83115500D01*
X160062500Y-82928000D01*
X158650000Y-82928000D01*
X158350000Y-82928000D01*
X158330000Y-82928000D01*
X158330000Y-82800000D01*
X160996371Y-82800000D01*
X161010852Y-82947026D01*
X161053738Y-83088401D01*
X161123380Y-83218694D01*
X161217104Y-83332896D01*
X161331306Y-83426620D01*
X161461599Y-83496262D01*
X161602974Y-83539148D01*
X161750000Y-83553629D01*
X161812500Y-83550000D01*
X162000000Y-83362500D01*
X162187500Y-83550000D01*
X162250000Y-83553629D01*
X162397026Y-83539148D01*
X162433775Y-83528000D01*
X163746371Y-83528000D01*
X163760852Y-83675026D01*
X163803738Y-83816401D01*
X163873380Y-83946694D01*
X163967104Y-84060896D01*
X164081306Y-84154620D01*
X164211599Y-84224262D01*
X164352974Y-84267148D01*
X164500000Y-84281629D01*
X165162500Y-84278000D01*
X165350000Y-84090500D01*
X165350000Y-82928000D01*
X163937500Y-82928000D01*
X163750000Y-83115500D01*
X163746371Y-83528000D01*
X162433775Y-83528000D01*
X162538401Y-83496262D01*
X162668694Y-83426620D01*
X162782896Y-83332896D01*
X162876620Y-83218694D01*
X162946262Y-83088401D01*
X162989148Y-82947026D01*
X163003629Y-82800000D01*
X163000000Y-82337500D01*
X162812500Y-82150000D01*
X161187500Y-82150000D01*
X161000000Y-82337500D01*
X160996371Y-82800000D01*
X158330000Y-82800000D01*
X158330000Y-82628000D01*
X158350000Y-82628000D01*
X158350000Y-81465500D01*
X158650000Y-81465500D01*
X158650000Y-82628000D01*
X160062500Y-82628000D01*
X160250000Y-82440500D01*
X160253629Y-82028000D01*
X163746371Y-82028000D01*
X163750000Y-82440500D01*
X163937500Y-82628000D01*
X165350000Y-82628000D01*
X165350000Y-81465500D01*
X165162500Y-81278000D01*
X164500000Y-81274371D01*
X164352974Y-81288852D01*
X164211599Y-81331738D01*
X164081306Y-81401380D01*
X163967104Y-81495104D01*
X163873380Y-81609306D01*
X163803738Y-81739599D01*
X163760852Y-81880974D01*
X163746371Y-82028000D01*
X160253629Y-82028000D01*
X160239148Y-81880974D01*
X160196262Y-81739599D01*
X160126620Y-81609306D01*
X160032896Y-81495104D01*
X159918694Y-81401380D01*
X159788401Y-81331738D01*
X159647026Y-81288852D01*
X159500000Y-81274371D01*
X158837500Y-81278000D01*
X158650000Y-81465500D01*
X158350000Y-81465500D01*
X158162500Y-81278000D01*
X157500000Y-81274371D01*
X157352974Y-81288852D01*
X157211599Y-81331738D01*
X157081306Y-81401380D01*
X156999999Y-81468108D01*
X156918693Y-81401381D01*
X156788401Y-81331739D01*
X156647026Y-81288853D01*
X156500000Y-81274372D01*
X154500000Y-81274372D01*
X154352974Y-81288853D01*
X154211599Y-81331739D01*
X154081307Y-81401381D01*
X153967105Y-81495105D01*
X153940109Y-81528000D01*
X152520000Y-81528000D01*
X152520000Y-80086835D01*
X152523628Y-80050000D01*
X152523628Y-76900000D01*
X152520000Y-76863165D01*
X152520000Y-76417766D01*
X153497766Y-75440000D01*
X155746371Y-75440000D01*
X155760852Y-75587026D01*
X155803738Y-75728401D01*
X155873380Y-75858694D01*
X155967104Y-75972896D01*
X156081306Y-76066620D01*
X156211599Y-76136262D01*
X156352974Y-76179148D01*
X156500000Y-76193629D01*
X158162500Y-76190000D01*
X158350000Y-76002500D01*
X158350000Y-74690000D01*
X155937500Y-74690000D01*
X155750000Y-74877500D01*
X155746371Y-75440000D01*
X153497766Y-75440000D01*
X155687767Y-73250000D01*
X155836664Y-73250000D01*
X155847354Y-73269999D01*
X155803738Y-73351599D01*
X155760852Y-73492974D01*
X155746371Y-73640000D01*
X155750000Y-74202500D01*
X155937500Y-74390000D01*
X158350000Y-74390000D01*
X158350000Y-74370000D01*
X158650000Y-74370000D01*
X158650000Y-74390000D01*
X158670000Y-74390000D01*
X158670000Y-74690000D01*
X158650000Y-74690000D01*
X158650000Y-76002500D01*
X158837500Y-76190000D01*
X160500000Y-76193629D01*
X160647026Y-76179148D01*
X160749714Y-76147998D01*
X160746371Y-76528000D01*
X160760852Y-76675026D01*
X160803738Y-76816401D01*
X160873380Y-76946694D01*
X160967104Y-77060896D01*
X161081306Y-77154620D01*
X161211599Y-77224262D01*
X161352974Y-77267148D01*
X161500000Y-77281629D01*
X162162500Y-77278000D01*
X162350000Y-77090500D01*
X162350000Y-75928000D01*
X162650000Y-75928000D01*
X162650000Y-77090500D01*
X162837500Y-77278000D01*
X163500000Y-77281629D01*
X163647026Y-77267148D01*
X163788401Y-77224262D01*
X163918694Y-77154620D01*
X164000000Y-77087893D01*
X164081306Y-77154620D01*
X164211599Y-77224262D01*
X164352974Y-77267148D01*
X164500000Y-77281629D01*
X165162500Y-77278000D01*
X165350000Y-77090500D01*
X165350000Y-75928000D01*
X162650000Y-75928000D01*
X162350000Y-75928000D01*
X162330000Y-75928000D01*
X162330000Y-75628000D01*
X162350000Y-75628000D01*
X162350000Y-74465500D01*
X162650000Y-74465500D01*
X162650000Y-75628000D01*
X165350000Y-75628000D01*
X165350000Y-74465500D01*
X165162500Y-74278000D01*
X164500000Y-74274371D01*
X164352974Y-74288852D01*
X164211599Y-74331738D01*
X164081306Y-74401380D01*
X164000000Y-74468107D01*
X163918694Y-74401380D01*
X163788401Y-74331738D01*
X163647026Y-74288852D01*
X163500000Y-74274371D01*
X162837500Y-74278000D01*
X162650000Y-74465500D01*
X162350000Y-74465500D01*
X162162500Y-74278000D01*
X161500000Y-74274371D01*
X161352974Y-74288852D01*
X161211599Y-74331738D01*
X161102601Y-74389998D01*
X161062502Y-74389998D01*
X161250000Y-74202500D01*
X161253365Y-73680931D01*
X161352974Y-73711147D01*
X161500000Y-73725628D01*
X163500000Y-73725628D01*
X163647026Y-73711147D01*
X163788401Y-73668261D01*
X163918693Y-73598619D01*
X164000000Y-73531891D01*
X164081307Y-73598619D01*
X164211599Y-73668261D01*
X164352974Y-73711147D01*
X164500000Y-73725628D01*
X166500000Y-73725628D01*
X166647026Y-73711147D01*
X166788401Y-73668261D01*
X166918693Y-73598619D01*
X167032895Y-73504895D01*
X167101532Y-73421261D01*
X167101532Y-74578736D01*
X167032896Y-74495104D01*
X166918694Y-74401380D01*
X166788401Y-74331738D01*
X166647026Y-74288852D01*
X166500000Y-74274371D01*
X165837500Y-74278000D01*
X165650000Y-74465500D01*
X165650000Y-75628000D01*
X165670000Y-75628000D01*
X165670000Y-75928000D01*
X165650000Y-75928000D01*
X165650000Y-77090500D01*
X165837500Y-77278000D01*
X166500000Y-77281629D01*
X166647026Y-77267148D01*
X166788401Y-77224262D01*
X166918694Y-77154620D01*
X167032896Y-77060896D01*
X167126620Y-76946694D01*
X167196262Y-76816401D01*
X167239148Y-76675026D01*
X167253629Y-76528000D01*
X167250000Y-76115500D01*
X167062502Y-75928002D01*
X167250000Y-75928002D01*
X167250000Y-75892701D01*
X167322265Y-75980755D01*
X167436467Y-76074479D01*
X167566759Y-76144121D01*
X167708134Y-76187007D01*
X167855160Y-76201488D01*
X168355160Y-76201488D01*
X168502186Y-76187007D01*
X168643561Y-76144121D01*
X168740160Y-76092488D01*
X168836759Y-76144121D01*
X168978134Y-76187007D01*
X169125160Y-76201488D01*
X169625160Y-76201488D01*
X169772186Y-76187007D01*
X169913561Y-76144121D01*
X170008890Y-76093167D01*
X170104219Y-76144121D01*
X170125648Y-76150621D01*
X168474131Y-77802139D01*
X166837792Y-77802139D01*
X166788401Y-77775739D01*
X166647026Y-77732853D01*
X166500000Y-77718372D01*
X164500000Y-77718372D01*
X164352974Y-77732853D01*
X164211599Y-77775739D01*
X164081307Y-77845381D01*
X163967105Y-77939105D01*
X163921443Y-77994744D01*
X163896221Y-77911599D01*
X163826579Y-77781307D01*
X163732855Y-77667105D01*
X163618653Y-77573381D01*
X163488361Y-77503739D01*
X163346986Y-77460853D01*
X163199960Y-77446372D01*
X162699960Y-77446372D01*
X162552934Y-77460853D01*
X162411559Y-77503739D01*
X162281267Y-77573381D01*
X162167065Y-77667105D01*
X162073341Y-77781307D01*
X162003699Y-77911599D01*
X162000000Y-77923793D01*
X161996301Y-77911599D01*
X161926659Y-77781307D01*
X161832935Y-77667105D01*
X161718733Y-77573381D01*
X161588441Y-77503739D01*
X161447066Y-77460853D01*
X161300040Y-77446372D01*
X160800040Y-77446372D01*
X160653014Y-77460853D01*
X160511639Y-77503739D01*
X160381347Y-77573381D01*
X160267145Y-77667105D01*
X160173421Y-77781307D01*
X160103779Y-77911599D01*
X160085456Y-77972000D01*
X160059891Y-77972000D01*
X160032895Y-77939105D01*
X159918693Y-77845381D01*
X159788401Y-77775739D01*
X159647026Y-77732853D01*
X159500000Y-77718372D01*
X157500000Y-77718372D01*
X157352974Y-77732853D01*
X157211599Y-77775739D01*
X157081307Y-77845381D01*
X157000000Y-77912109D01*
X156918693Y-77845381D01*
X156788401Y-77775739D01*
X156647026Y-77732853D01*
X156500000Y-77718372D01*
X154500000Y-77718372D01*
X154352974Y-77732853D01*
X154211599Y-77775739D01*
X154081307Y-77845381D01*
X153967105Y-77939105D01*
X153873381Y-78053307D01*
X153803739Y-78183599D01*
X153760853Y-78324974D01*
X153746372Y-78472000D01*
X153746372Y-79972000D01*
X153760853Y-80119026D01*
X153803739Y-80260401D01*
X153873381Y-80390693D01*
X153967105Y-80504895D01*
X154081307Y-80598619D01*
X154211599Y-80668261D01*
X154352974Y-80711147D01*
X154500000Y-80725628D01*
X156500000Y-80725628D01*
X156647026Y-80711147D01*
X156788401Y-80668261D01*
X156918693Y-80598619D01*
X157000000Y-80531891D01*
X157081307Y-80598619D01*
X157211599Y-80668261D01*
X157352974Y-80711147D01*
X157500000Y-80725628D01*
X159500000Y-80725628D01*
X159647026Y-80711147D01*
X159788401Y-80668261D01*
X159918693Y-80598619D01*
X160032895Y-80504895D01*
X160059891Y-80472000D01*
X160466250Y-80472000D01*
X160511639Y-80496261D01*
X160653014Y-80539147D01*
X160800040Y-80553628D01*
X161300040Y-80553628D01*
X161383671Y-80545391D01*
X161331306Y-80573380D01*
X161217104Y-80667104D01*
X161123380Y-80781306D01*
X161053738Y-80911599D01*
X161010852Y-81052974D01*
X160996371Y-81200000D01*
X161000000Y-81662500D01*
X161187500Y-81850000D01*
X162812500Y-81850000D01*
X163000000Y-81662500D01*
X163003629Y-81200000D01*
X162989148Y-81052974D01*
X162946262Y-80911599D01*
X162876620Y-80781306D01*
X162782896Y-80667104D01*
X162668694Y-80573380D01*
X162616329Y-80545391D01*
X162699960Y-80553628D01*
X163199960Y-80553628D01*
X163346986Y-80539147D01*
X163488361Y-80496261D01*
X163618653Y-80426619D01*
X163732855Y-80332895D01*
X163800665Y-80250269D01*
X163803739Y-80260401D01*
X163873381Y-80390693D01*
X163967105Y-80504895D01*
X164081307Y-80598619D01*
X164211599Y-80668261D01*
X164352974Y-80711147D01*
X164500000Y-80725628D01*
X166500000Y-80725628D01*
X166647026Y-80711147D01*
X166788401Y-80668261D01*
X166918693Y-80598619D01*
X167032895Y-80504895D01*
X167091372Y-80433641D01*
X167091372Y-81566357D01*
X167032896Y-81495104D01*
X166918694Y-81401380D01*
X166788401Y-81331738D01*
X166647026Y-81288852D01*
X166500000Y-81274371D01*
X165837500Y-81278000D01*
X165650000Y-81465500D01*
X165650000Y-82628000D01*
X165670000Y-82628000D01*
X165670000Y-82928000D01*
X165650000Y-82928000D01*
X165650000Y-84090500D01*
X165837500Y-84278000D01*
X166500000Y-84281629D01*
X166529016Y-84278771D01*
X165561024Y-85246764D01*
X165417974Y-85260853D01*
X165276599Y-85303739D01*
X165146307Y-85373381D01*
X165032105Y-85467105D01*
X164938381Y-85581307D01*
X164920000Y-85615696D01*
X164901619Y-85581307D01*
X164807895Y-85467105D01*
X164693693Y-85373381D01*
X164563401Y-85303739D01*
X164422026Y-85260853D01*
X164275000Y-85246372D01*
X163025000Y-85246372D01*
X162877974Y-85260853D01*
X162736599Y-85303739D01*
X162606307Y-85373381D01*
X162492105Y-85467105D01*
X162398381Y-85581307D01*
X162328739Y-85711599D01*
X162285853Y-85852974D01*
X162271372Y-86000000D01*
X162271372Y-89000000D01*
X162285853Y-89147026D01*
X162328739Y-89288401D01*
X162398381Y-89418693D01*
X162492105Y-89532895D01*
X162606307Y-89626619D01*
X162736599Y-89696261D01*
X162877974Y-89739147D01*
X163025000Y-89753628D01*
X164275000Y-89753628D01*
X164422026Y-89739147D01*
X164563401Y-89696261D01*
X164693693Y-89626619D01*
X164807895Y-89532895D01*
X164901619Y-89418693D01*
X164920000Y-89384304D01*
X164938381Y-89418693D01*
X165032105Y-89532895D01*
X165146307Y-89626619D01*
X165276599Y-89696261D01*
X165417974Y-89739147D01*
X165565000Y-89753628D01*
X166815000Y-89753628D01*
X166962026Y-89739147D01*
X167103401Y-89696261D01*
X167233693Y-89626619D01*
X167347895Y-89532895D01*
X167441619Y-89418693D01*
X167460000Y-89384304D01*
X167478381Y-89418693D01*
X167572105Y-89532895D01*
X167686307Y-89626619D01*
X167816599Y-89696261D01*
X167957974Y-89739147D01*
X168105000Y-89753628D01*
X169355000Y-89753628D01*
X169502026Y-89739147D01*
X169643401Y-89696261D01*
X169773693Y-89626619D01*
X169887895Y-89532895D01*
X169981619Y-89418693D01*
X170000000Y-89384304D01*
X170018381Y-89418693D01*
X170112105Y-89532895D01*
X170226307Y-89626619D01*
X170356599Y-89696261D01*
X170497974Y-89739147D01*
X170645000Y-89753628D01*
X171895000Y-89753628D01*
X172042026Y-89739147D01*
X172183401Y-89696261D01*
X172313693Y-89626619D01*
X172427895Y-89532895D01*
X172521619Y-89418693D01*
X172540000Y-89384304D01*
X172558381Y-89418693D01*
X172652105Y-89532895D01*
X172766307Y-89626619D01*
X172896599Y-89696261D01*
X173037974Y-89739147D01*
X173185000Y-89753628D01*
X174435000Y-89753628D01*
X174582026Y-89739147D01*
X174723401Y-89696261D01*
X174853693Y-89626619D01*
X174967895Y-89532895D01*
X175061619Y-89418693D01*
X175079999Y-89384306D01*
X175098380Y-89418694D01*
X175192104Y-89532896D01*
X175306306Y-89626620D01*
X175436599Y-89696262D01*
X175577974Y-89739148D01*
X175725000Y-89753629D01*
X176012500Y-89750000D01*
X176200000Y-89562500D01*
X176200000Y-87650000D01*
X176500000Y-87650000D01*
X176500000Y-89562500D01*
X176687500Y-89750000D01*
X176975000Y-89753629D01*
X177122026Y-89739148D01*
X177263401Y-89696262D01*
X177393694Y-89626620D01*
X177507896Y-89532896D01*
X177601620Y-89418694D01*
X177671262Y-89288401D01*
X177714148Y-89147026D01*
X177728629Y-89000000D01*
X177725000Y-87837500D01*
X177537500Y-87650000D01*
X176500000Y-87650000D01*
X176200000Y-87650000D01*
X176180000Y-87650000D01*
X176180000Y-87350000D01*
X176200000Y-87350000D01*
X176200000Y-85437500D01*
X176500000Y-85437500D01*
X176500000Y-87350000D01*
X177537500Y-87350000D01*
X177725000Y-87162500D01*
X177728629Y-86000000D01*
X177714148Y-85852974D01*
X177671262Y-85711599D01*
X177601620Y-85581306D01*
X177507896Y-85467104D01*
X177393694Y-85373380D01*
X177263401Y-85303738D01*
X177122026Y-85260852D01*
X176975000Y-85246371D01*
X176687500Y-85250000D01*
X176500000Y-85437500D01*
X176200000Y-85437500D01*
X176012500Y-85250000D01*
X175725000Y-85246371D01*
X175577974Y-85260852D01*
X175436599Y-85303738D01*
X175306306Y-85373380D01*
X175192104Y-85467104D01*
X175098380Y-85581306D01*
X175079999Y-85615694D01*
X175061619Y-85581307D01*
X174967895Y-85467105D01*
X174853693Y-85373381D01*
X174723401Y-85303739D01*
X174582026Y-85260853D01*
X174435000Y-85246372D01*
X173237010Y-85246372D01*
X173267147Y-85147026D01*
X173281628Y-85000000D01*
X173281628Y-83000000D01*
X173267147Y-82852974D01*
X173224261Y-82711599D01*
X173154619Y-82581307D01*
X173060895Y-82467105D01*
X172946693Y-82373381D01*
X172816401Y-82303739D01*
X172701221Y-82268799D01*
X172781620Y-82170834D01*
X172851262Y-82040541D01*
X172894148Y-81899166D01*
X172908629Y-81752140D01*
X172905000Y-80989640D01*
X172717502Y-80802142D01*
X172905000Y-80802142D01*
X172905000Y-80772272D01*
X173000000Y-80781629D01*
X173662500Y-80778000D01*
X173850000Y-80590500D01*
X173850000Y-79428000D01*
X174150000Y-79428000D01*
X174150000Y-80590500D01*
X174337500Y-80778000D01*
X175000000Y-80781629D01*
X175147026Y-80767148D01*
X175288401Y-80724262D01*
X175418694Y-80654620D01*
X175532896Y-80560896D01*
X175626620Y-80446694D01*
X175696262Y-80316401D01*
X175739148Y-80175026D01*
X175753629Y-80028000D01*
X175750000Y-79615500D01*
X175562500Y-79428000D01*
X174150000Y-79428000D01*
X173850000Y-79428000D01*
X173830000Y-79428000D01*
X173830000Y-79128000D01*
X173850000Y-79128000D01*
X173850000Y-79108000D01*
X174150000Y-79108000D01*
X174150000Y-79128000D01*
X175562500Y-79128000D01*
X175750000Y-78940500D01*
X175751430Y-78777999D01*
X177746372Y-78777999D01*
X177746372Y-79050000D01*
X177760853Y-79197026D01*
X177803739Y-79338401D01*
X177873381Y-79468693D01*
X177967105Y-79582895D01*
X178081307Y-79676619D01*
X178211599Y-79746261D01*
X178352974Y-79789147D01*
X178500000Y-79803628D01*
X180500000Y-79803628D01*
X180647026Y-79789147D01*
X180788401Y-79746261D01*
X180900002Y-79686610D01*
X180900001Y-81199999D01*
X178649121Y-81199999D01*
X178600001Y-81195161D01*
X178550881Y-81199999D01*
X178403967Y-81214469D01*
X178215466Y-81271650D01*
X178041743Y-81364507D01*
X177889473Y-81489471D01*
X177858155Y-81527632D01*
X177677636Y-81708152D01*
X177639472Y-81739472D01*
X177514508Y-81891742D01*
X177441677Y-82028000D01*
X177421651Y-82065466D01*
X177364470Y-82253966D01*
X177361875Y-82280317D01*
X177281307Y-82323381D01*
X177167105Y-82417105D01*
X177073381Y-82531307D01*
X177003739Y-82661599D01*
X176960853Y-82802974D01*
X176946372Y-82950000D01*
X176946372Y-84250000D01*
X176960853Y-84397026D01*
X177003739Y-84538401D01*
X177073381Y-84668693D01*
X177167105Y-84782895D01*
X177281307Y-84876619D01*
X177411599Y-84946261D01*
X177552974Y-84989147D01*
X177700000Y-85003628D01*
X179000000Y-85003628D01*
X179147026Y-84989147D01*
X179288401Y-84946261D01*
X179418693Y-84876619D01*
X179499999Y-84809892D01*
X179581306Y-84876620D01*
X179711599Y-84946262D01*
X179852974Y-84989148D01*
X180000000Y-85003629D01*
X180312500Y-85000000D01*
X180500000Y-84812500D01*
X180500000Y-83750000D01*
X180480000Y-83750000D01*
X180480000Y-83450000D01*
X180500000Y-83450000D01*
X180500000Y-83430000D01*
X180800000Y-83430000D01*
X180800000Y-83450000D01*
X180820000Y-83450000D01*
X180820000Y-83750000D01*
X180800000Y-83750000D01*
X180800000Y-84812500D01*
X180987500Y-85000000D01*
X181300000Y-85003629D01*
X181447026Y-84989148D01*
X181588401Y-84946262D01*
X181718694Y-84876620D01*
X181832896Y-84782896D01*
X181926620Y-84668694D01*
X181996262Y-84538401D01*
X182039148Y-84397026D01*
X182053629Y-84250000D01*
X182050000Y-83937500D01*
X181862502Y-83750002D01*
X182035792Y-83750002D01*
X184808158Y-86522369D01*
X184839475Y-86560529D01*
X184991745Y-86685493D01*
X185165468Y-86778350D01*
X185353969Y-86835531D01*
X185500883Y-86850001D01*
X185500884Y-86850001D01*
X185550002Y-86854839D01*
X185599120Y-86850001D01*
X188970879Y-86850001D01*
X189019999Y-86854839D01*
X189069119Y-86850001D01*
X189216033Y-86835531D01*
X189404534Y-86778350D01*
X189578257Y-86685493D01*
X189730527Y-86560529D01*
X189761847Y-86522365D01*
X189942367Y-86341846D01*
X189980528Y-86310528D01*
X190105492Y-86158258D01*
X190198349Y-85984535D01*
X190255530Y-85796034D01*
X190268846Y-85660839D01*
X190302895Y-85632895D01*
X190396619Y-85518693D01*
X190466261Y-85388401D01*
X190509147Y-85247026D01*
X190523628Y-85100000D01*
X190523628Y-81950000D01*
X190509147Y-81802974D01*
X190466261Y-81661599D01*
X190396619Y-81531307D01*
X190302895Y-81417105D01*
X190270000Y-81390109D01*
X190270000Y-80609891D01*
X190302895Y-80582895D01*
X190396619Y-80468693D01*
X190466261Y-80338401D01*
X190509147Y-80197026D01*
X190523628Y-80050000D01*
X190523628Y-76900000D01*
X190509147Y-76752974D01*
X190466261Y-76611599D01*
X190396619Y-76481307D01*
X190302895Y-76367105D01*
X190188693Y-76273381D01*
X190058401Y-76203739D01*
X189917026Y-76160853D01*
X189770000Y-76146372D01*
X188770000Y-76146372D01*
X188622974Y-76160853D01*
X188481599Y-76203739D01*
X188351307Y-76273381D01*
X188237105Y-76367105D01*
X188143381Y-76481307D01*
X188073739Y-76611599D01*
X188030853Y-76752974D01*
X188016372Y-76900000D01*
X188016372Y-80050000D01*
X188030853Y-80197026D01*
X188073739Y-80338401D01*
X188143381Y-80468693D01*
X188237105Y-80582895D01*
X188270000Y-80609892D01*
X188270001Y-81390108D01*
X188237105Y-81417105D01*
X188143381Y-81531307D01*
X188073739Y-81661599D01*
X188030853Y-81802974D01*
X188016372Y-81950000D01*
X188016372Y-84850001D01*
X187983628Y-84850001D01*
X187983628Y-81950000D01*
X187969147Y-81802974D01*
X187926261Y-81661599D01*
X187856619Y-81531307D01*
X187762895Y-81417105D01*
X187730000Y-81390109D01*
X187730000Y-80609891D01*
X187762895Y-80582895D01*
X187856619Y-80468693D01*
X187926261Y-80338401D01*
X187969147Y-80197026D01*
X187983628Y-80050000D01*
X187983628Y-76900000D01*
X187969147Y-76752974D01*
X187926261Y-76611599D01*
X187856619Y-76481307D01*
X187762895Y-76367105D01*
X187648693Y-76273381D01*
X187518401Y-76203739D01*
X187377026Y-76160853D01*
X187230000Y-76146372D01*
X186230000Y-76146372D01*
X186082974Y-76160853D01*
X185941599Y-76203739D01*
X185896864Y-76227650D01*
X184945470Y-75276257D01*
X185000000Y-75281628D01*
X187000000Y-75281628D01*
X187147026Y-75267147D01*
X187288401Y-75224261D01*
X187418693Y-75154619D01*
X187532895Y-75060895D01*
X187626619Y-74946693D01*
X187696261Y-74816401D01*
X187707910Y-74778000D01*
X188292090Y-74778000D01*
X188303739Y-74816401D01*
X188373381Y-74946693D01*
X188467105Y-75060895D01*
X188581307Y-75154619D01*
X188711599Y-75224261D01*
X188852974Y-75267147D01*
X189000000Y-75281628D01*
X191000000Y-75281628D01*
X191147026Y-75267147D01*
X191288401Y-75224261D01*
X191418693Y-75154619D01*
X191532895Y-75060895D01*
X191626619Y-74946693D01*
X191696261Y-74816401D01*
X191739147Y-74675026D01*
X191753628Y-74528000D01*
X191753628Y-73028000D01*
X191739147Y-72880974D01*
X191696261Y-72739599D01*
X191626619Y-72609307D01*
X191532895Y-72495105D01*
X191418693Y-72401381D01*
X191288401Y-72331739D01*
X191147026Y-72288853D01*
X191000000Y-72274372D01*
X189361840Y-72274372D01*
X189910585Y-71725628D01*
X191000000Y-71725628D01*
X191147026Y-71711147D01*
X191288401Y-71668261D01*
X191418693Y-71598619D01*
X191532895Y-71504895D01*
X191626619Y-71390693D01*
X191696261Y-71260401D01*
X191739147Y-71119026D01*
X191753628Y-70972000D01*
X191753628Y-69472000D01*
X191739147Y-69324974D01*
X191696261Y-69183599D01*
X191626619Y-69053307D01*
X191532895Y-68939105D01*
X191418693Y-68845381D01*
X191288401Y-68775739D01*
X191147026Y-68732853D01*
X191000000Y-68718372D01*
X189000000Y-68718372D01*
X188852974Y-68732853D01*
X188711599Y-68775739D01*
X188581307Y-68845381D01*
X188467105Y-68939105D01*
X188373381Y-69053307D01*
X188303739Y-69183599D01*
X188260853Y-69324974D01*
X188246372Y-69472000D01*
X188246372Y-70561415D01*
X188085787Y-70722001D01*
X187751430Y-70722001D01*
X187750000Y-70559500D01*
X187562500Y-70372000D01*
X186150000Y-70372000D01*
X186150000Y-70392000D01*
X185850000Y-70392000D01*
X185850000Y-70372000D01*
X184437500Y-70372000D01*
X184250000Y-70559500D01*
X184248570Y-70722001D01*
X182136214Y-70722001D01*
X181741848Y-70327636D01*
X181710528Y-70289472D01*
X181558258Y-70164508D01*
X181384535Y-70071651D01*
X181196034Y-70014470D01*
X181049120Y-70000000D01*
X181000000Y-69995162D01*
X180950880Y-70000000D01*
X171172137Y-70000000D01*
X171123019Y-69995162D01*
X171073901Y-70000000D01*
X171073900Y-70000000D01*
X170926986Y-70014470D01*
X170738485Y-70071651D01*
X170564762Y-70164508D01*
X170412492Y-70289472D01*
X170381175Y-70327632D01*
X169098490Y-71610318D01*
X169090690Y-71531124D01*
X169033509Y-71342623D01*
X168940652Y-71168900D01*
X168847000Y-71054784D01*
X168815688Y-71016630D01*
X168777534Y-70985318D01*
X167264215Y-69472000D01*
X184246371Y-69472000D01*
X184250000Y-69884500D01*
X184437500Y-70072000D01*
X185850000Y-70072000D01*
X185850000Y-68909500D01*
X186150000Y-68909500D01*
X186150000Y-70072000D01*
X187562500Y-70072000D01*
X187750000Y-69884500D01*
X187753629Y-69472000D01*
X187739148Y-69324974D01*
X187696262Y-69183599D01*
X187626620Y-69053306D01*
X187532896Y-68939104D01*
X187418694Y-68845380D01*
X187288401Y-68775738D01*
X187147026Y-68732852D01*
X187000000Y-68718371D01*
X186337500Y-68722000D01*
X186150000Y-68909500D01*
X185850000Y-68909500D01*
X185662500Y-68722000D01*
X185000000Y-68718371D01*
X184852974Y-68732852D01*
X184711599Y-68775738D01*
X184581306Y-68845380D01*
X184467104Y-68939104D01*
X184373380Y-69053306D01*
X184303738Y-69183599D01*
X184260852Y-69324974D01*
X184246371Y-69472000D01*
X167264215Y-69472000D01*
X166579851Y-68787637D01*
X166548530Y-68749472D01*
X166396260Y-68624508D01*
X166222537Y-68531651D01*
X166034036Y-68474470D01*
X165887122Y-68460000D01*
X165838002Y-68455162D01*
X165788882Y-68460000D01*
X161243779Y-68460000D01*
X161239147Y-68412974D01*
X161196261Y-68271599D01*
X161126619Y-68141307D01*
X161032895Y-68027105D01*
X160918693Y-67933381D01*
X160788401Y-67863739D01*
X160647026Y-67820853D01*
X160500000Y-67806372D01*
X156500000Y-67806372D01*
X156352974Y-67820853D01*
X156211599Y-67863739D01*
X156081307Y-67933381D01*
X155967105Y-68027105D01*
X155873381Y-68141307D01*
X155803739Y-68271599D01*
X155760853Y-68412974D01*
X155746372Y-68560000D01*
X155746372Y-70360000D01*
X155760853Y-70507026D01*
X155803739Y-70648401D01*
X155847354Y-70730000D01*
X155836664Y-70750000D01*
X155231398Y-70750000D01*
X155170000Y-70743953D01*
X155108602Y-70750000D01*
X155108595Y-70750000D01*
X154924957Y-70768087D01*
X154689331Y-70839563D01*
X154472177Y-70955634D01*
X154281840Y-71111840D01*
X154242696Y-71159537D01*
X150429538Y-74972696D01*
X150381841Y-75011840D01*
X150225635Y-75202177D01*
X150213831Y-75224261D01*
X150109563Y-75419332D01*
X150038087Y-75654958D01*
X150013953Y-75900000D01*
X147775000Y-75900000D01*
X147775000Y-65037902D01*
X147821021Y-64568552D01*
X147946322Y-64153535D01*
X148149845Y-63770761D01*
X148423842Y-63434808D01*
X148757876Y-63158471D01*
X149139219Y-62952280D01*
X149553349Y-62824085D01*
X150020370Y-62775000D01*
X151192857Y-62775000D01*
X151192857Y-63271393D01*
G37*
%TD.AperFunction*%
D20*
X172075000Y-80802140D02*
X171735000Y-80802140D01*
X171735000Y-80502140D01*
X172075000Y-80502140D01*
X172075000Y-80802140D01*
%TA.AperFunction,Conductor*%
D22*
G36*
X172075000Y-80802140D02*
G01*
X171735000Y-80802140D01*
X171735000Y-80502140D01*
X172075000Y-80502140D01*
X172075000Y-80802140D01*
G37*
%TD.AperFunction*%
%TD*%
M02*
