<?xml version="1.0" encoding="UTF-8" standalone="no"?>
<svg
   version="1.1"
   width="48.190102mm"
   height="33.05019mm"
   viewBox="0 0 18972.481 13011.886"
   id="svg446"
   xmlns="http://www.w3.org/2000/svg"
   xmlns:svg="http://www.w3.org/2000/svg"
   xmlns:rdf="http://www.w3.org/1999/02/22-rdf-syntax-ns#"
   xmlns:cc="http://creativecommons.org/ns#"
   xmlns:dc="http://purl.org/dc/elements/1.1/">
  <defs
     id="defs450" />
  <title
     id="title2">SVG Picture created as micropantograph-brd.svg date 2021/07/10 17:29:02 </title>
  <desc
     id="desc4">Picture generated by PCBNEW </desc>
  <g
     style="fill:#000000;fill-opacity:1;stroke:#000000;stroke-linecap:round;stroke-linejoin:round;stroke-opacity:1"
     id="g6"
     transform="translate(-2842.5192,-777.4567)" />
  <g
     style="fill:#000000;fill-opacity:0;stroke:#000000;stroke-width:-0.000393701;stroke-linecap:round;stroke-linejoin:round;stroke-opacity:1"
     id="g8"
     transform="translate(-2842.5192,-777.4567)" />
  <g
     style="fill:#ffffff;fill-opacity:1;stroke:#ffffff;stroke-width:196.85;stroke-linecap:round;stroke-linejoin:round;stroke-opacity:1"
     id="g360"
     transform="translate(-2842.5192,-777.4567)" />
  <g
     style="fill:#ffffff;fill-opacity:1;stroke:#ffffff;stroke-width:39.3701;stroke-linecap:round;stroke-linejoin:round;stroke-opacity:1"
     id="g366"
     transform="translate(-2842.5192,-777.4567)" />
  <g
     style="fill:#ffffff;fill-opacity:1;stroke:#ffffff;stroke-width:39.3701;stroke-linecap:round;stroke-linejoin:round;stroke-opacity:1"
     id="g372"
     transform="translate(-2842.5192,-777.4567)" />
  <g
     style="fill:#ffffff;fill-opacity:1;stroke:#ffffff;stroke-width:39.3701;stroke-linecap:round;stroke-linejoin:round;stroke-opacity:1"
     id="g378"
     transform="translate(-2842.5192,-777.4567)" />
  <g
     style="fill:#ffffff;fill-opacity:1;stroke:#ffffff;stroke-width:39.3701;stroke-linecap:round;stroke-linejoin:round;stroke-opacity:1"
     id="g384"
     transform="translate(-2842.5192,-777.4567)" />
  <g
     style="fill:#000000;fill-opacity:1;stroke:#000000;stroke-width:39.3701;stroke-linecap:round;stroke-linejoin:round;stroke-opacity:1"
     id="g386"
     transform="translate(-2842.5192,-777.4567)" />
  <g
     id="layer1"
     transform="translate(-2842.5192,-777.4567)"
     style="display:none">
    <g
       style="fill:#000000;fill-opacity:0;stroke:#000000;stroke-width:157.48;stroke-linecap:round;stroke-linejoin:round;stroke-opacity:1"
       id="g56"
       transform="translate(-1.6143515e-5)">
      <text
         x="12328.7"
         y="2460.6299"
         textLength="14316.6"
         font-size="1312.34px"
         lengthAdjust="spacingAndGlyphs"
         text-anchor="middle"
         opacity="0"
         id="text10">MICROPANTOGRAPH</text>
      <path
         d="m 5532,2413 v -984 l 328,703 328,-703 v 984"
         id="path12" />
      <path
         d="M 6657,2413 V 1429"
         id="path14" />
      <path
         d="m 7688,2320 -47,46 -140,47 h -94 l -141,-47 -93,-93 -47,-94 -47,-188 v -140 l 47,-188 47,-93 93,-94 141,-47 h 94 l 140,47 47,47"
         id="path16" />
      <path
         d="M 8672,2413 8344,1945"
         id="path18" />
      <path
         d="m 8110,2413 v -984 h 375 l 94,47 47,47 46,93 v 141 l -46,94 -47,47 -94,47 h -375"
         id="path20" />
      <path
         d="m 9282,1429 h 187 l 94,47 94,94 47,187 v 328 l -47,188 -94,93 -94,47 h -187 l -94,-47 -94,-93 -47,-188 v -328 l 47,-187 94,-94 94,-47"
         id="path22" />
      <path
         d="m 10125,2413 v -984 h 375 l 94,47 47,47 47,93 v 141 l -47,94 -47,47 -94,47 h -375"
         id="path24" />
      <path
         d="m 11063,2132 h 468"
         id="path26" />
      <path
         d="m 10969,2413 328,-984 328,984"
         id="path28" />
      <path
         d="m 11953,2413 v -984 l 563,984 v -984"
         id="path30" />
      <path
         d="m 12844,1429 h 562"
         id="path32" />
      <path
         d="M 13125,2413 V 1429"
         id="path34" />
      <path
         d="m 13922,1429 h 187 l 94,47 94,94 47,187 v 328 l -47,188 -94,93 -94,47 h -187 l -94,-47 -94,-93 -47,-188 v -328 l 47,-187 94,-94 94,-47"
         id="path36" />
      <path
         d="m 15281,1476 -94,-47 h -140 l -141,47 -94,94 -47,93 -46,188 v 140 l 46,188 47,94 94,93 141,47 h 93 l 141,-47 47,-46 v -329 h -188"
         id="path38" />
      <path
         d="m 16312,2413 -328,-468"
         id="path40" />
      <path
         d="m 15750,2413 v -984 h 375 l 93,47 47,47 47,93 v 141 l -47,94 -47,47 -93,47 h -375"
         id="path42" />
      <path
         d="m 16687,2132 h 469"
         id="path44" />
      <path
         d="m 16593,2413 328,-984 329,984"
         id="path46" />
      <path
         d="m 17578,2413 v -984 h 375 l 93,47 47,47 47,93 v 141 l -47,94 -47,47 -93,47 h -375"
         id="path48" />
      <path
         d="M 18562,2413 V 1429"
         id="path50" />
      <path
         d="m 18562,1898 h 562"
         id="path52" />
      <path
         d="M 19124,2413 V 1429"
         id="path54" />
    </g>
    <g
       style="fill:#000000;fill-opacity:0;stroke:#000000;stroke-width:196.85;stroke-linecap:round;stroke-linejoin:round;stroke-opacity:1"
       id="g358"
       transform="translate(-1.6143515e-5)">
      <text
         x="4257.8701"
         y="6102.3599"
         textLength="1179.6"
         font-size="1049.87px"
         lengthAdjust="spacingAndGlyphs"
         text-anchor="middle"
         opacity="0"
         id="text58">+</text>
      <path
         d="m 3957,5764 h 600"
         id="path60" />
      <path
         d="M 4257,6064 V 5464"
         id="path62" />
      <g
         id="g64" />
      <g
         id="g66" />
      <g
         id="g68" />
      <g
         id="g70" />
      <g
         id="g72" />
      <g
         style="fill:#000000;fill-opacity:0;stroke:#000000;stroke-width:196.85;stroke-linecap:round;stroke-linejoin:round;stroke-opacity:1"
         id="g74" />
      <g
         style="fill:#000000;fill-opacity:0;stroke:#000000;stroke-width:0;stroke-linecap:round;stroke-linejoin:round;stroke-opacity:1"
         id="g76" />
      <g
         style="fill:#000000;fill-opacity:1;stroke:#000000;stroke-width:0;stroke-linecap:round;stroke-linejoin:round;stroke-opacity:1"
         id="g82">
        <path
           style="fill:#000000;fill-opacity:1;fill-rule:evenodd;stroke:#000000;stroke-width:0;stroke-linecap:round;stroke-linejoin:round;stroke-opacity:1"
           d="m 6816.93,6387.4 h 787.4 v 590.55 h -787.4 z"
           id="path78" />
        <path
           style="fill:#000000;fill-opacity:1;fill-rule:evenodd;stroke:#000000;stroke-width:0;stroke-linecap:round;stroke-linejoin:round;stroke-opacity:1"
           d="m 6816.93,7787.4 h 787.4 v 590.55 h -787.4 z"
           id="path80" />
      </g>
      <g
         id="g84" />
      <g
         style="fill:#000000;fill-opacity:1;stroke:#000000;stroke-width:0;stroke-linecap:round;stroke-linejoin:round;stroke-opacity:1"
         id="g90">
        <path
           style="fill:#000000;fill-opacity:1;fill-rule:evenodd;stroke:#000000;stroke-width:0;stroke-linecap:round;stroke-linejoin:round;stroke-opacity:1"
           d="m 9572.84,7885.04 h 787.36 v 590.55 h -787.36 z"
           id="path86" />
        <path
           style="fill:#000000;fill-opacity:1;fill-rule:evenodd;stroke:#000000;stroke-width:0;stroke-linecap:round;stroke-linejoin:round;stroke-opacity:1"
           d="m 9572.84,6485.04 h 787.36 v 590.55 h -787.36 z"
           id="path88" />
      </g>
      <g
         id="g92" />
      <g
         style="fill:#000000;fill-opacity:1;stroke:#000000;stroke-width:0;stroke-linecap:round;stroke-linejoin:round;stroke-opacity:1"
         id="g98">
        <path
           style="fill:#000000;fill-opacity:1;fill-rule:evenodd;stroke:#000000;stroke-width:0;stroke-linecap:round;stroke-linejoin:round;stroke-opacity:1"
           d="m 13509.8,6288.19 h 787.4 v 590.55 h -787.4 z"
           id="path94" />
        <path
           style="fill:#000000;fill-opacity:1;fill-rule:evenodd;stroke:#000000;stroke-width:0;stroke-linecap:round;stroke-linejoin:round;stroke-opacity:1"
           d="m 13509.8,7688.19 h 787.4 v 590.55 h -787.4 z"
           id="path96" />
      </g>
      <g
         id="g100" />
      <g
         style="fill:#000000;fill-opacity:1;stroke:#000000;stroke-width:0;stroke-linecap:round;stroke-linejoin:round;stroke-opacity:1"
         id="g106">
        <path
           style="fill:#000000;fill-opacity:1;fill-rule:evenodd;stroke:#000000;stroke-width:0;stroke-linecap:round;stroke-linejoin:round;stroke-opacity:1"
           d="m 9572.84,3925.98 h 787.36 v 590.56 h -787.36 z"
           id="path102" />
        <path
           style="fill:#000000;fill-opacity:1;fill-rule:evenodd;stroke:#000000;stroke-width:0;stroke-linecap:round;stroke-linejoin:round;stroke-opacity:1"
           d="m 9572.84,5325.98 h 787.36 v 590.56 h -787.36 z"
           id="path104" />
      </g>
      <g
         id="g108" />
      <g
         style="fill:#000000;fill-opacity:1;stroke:#000000;stroke-width:0;stroke-linecap:round;stroke-linejoin:round;stroke-opacity:1"
         id="g114">
        <path
           style="fill:#000000;fill-opacity:1;fill-rule:evenodd;stroke:#000000;stroke-width:0;stroke-linecap:round;stroke-linejoin:round;stroke-opacity:1"
           d="m 8982.28,12215.7 h -787.4 v -590.5 h 787.4 z"
           id="path110" />
        <path
           style="fill:#000000;fill-opacity:1;fill-rule:evenodd;stroke:#000000;stroke-width:0;stroke-linecap:round;stroke-linejoin:round;stroke-opacity:1"
           d="m 8982.28,10815.7 h -787.4 v -590.5 h 787.4 z"
           id="path112" />
      </g>
      <g
         id="g116" />
      <g
         style="fill:#000000;fill-opacity:1;stroke:#000000;stroke-width:0;stroke-linecap:round;stroke-linejoin:round;stroke-opacity:1"
         id="g122">
        <path
           style="fill:#000000;fill-opacity:1;fill-rule:evenodd;stroke:#000000;stroke-width:0;stroke-linecap:round;stroke-linejoin:round;stroke-opacity:1"
           d="m 4811.02,7488.19 v 590.55 h -1574.8 v -590.55 z"
           id="path118" />
        <path
           style="fill:#000000;fill-opacity:1;fill-rule:evenodd;stroke:#000000;stroke-width:0;stroke-linecap:round;stroke-linejoin:round;stroke-opacity:1"
           d="m 4811.02,6488.19 v 590.55 h -1574.8 v -590.55 z"
           id="path120" />
      </g>
      <g
         id="g124" />
      <g
         style="fill:#000000;fill-opacity:1;stroke:#000000;stroke-width:0;stroke-linecap:round;stroke-linejoin:round;stroke-opacity:1"
         id="g130">
        <path
           style="fill:#000000;fill-opacity:1;fill-rule:evenodd;stroke:#000000;stroke-width:0;stroke-linecap:round;stroke-linejoin:round;stroke-opacity:1"
           d="m 19846.5,5125.98 v -590.55 h 1574.8 v 590.55 z"
           id="path126" />
        <path
           style="fill:#000000;fill-opacity:1;fill-rule:evenodd;stroke:#000000;stroke-width:0;stroke-linecap:round;stroke-linejoin:round;stroke-opacity:1"
           d="m 19846.5,4125.98 v -590.55 h 1574.8 v 590.55 z"
           id="path128" />
      </g>
      <g
         id="g132" />
      <g
         style="fill:#000000;fill-opacity:1;stroke:#000000;stroke-width:0;stroke-linecap:round;stroke-linejoin:round;stroke-opacity:1"
         id="g146">
        <path
           style="fill:#000000;fill-opacity:1;fill-rule:evenodd;stroke:#000000;stroke-width:0;stroke-linecap:round;stroke-linejoin:round;stroke-opacity:1"
           d="m 14963.8,10630.5 12,1.8 11.7,2.9 11.4,4.1 10.9,5.1 10.3,6.3 9.7,7.1 9,8.2 8.1,8.9 7.2,9.7 6.2,10.4 5.1,10.9 4.1,11.3 2.9,11.8 1.8,11.9 0.6,12.1 v 935 l -0.6,12.1 -1.8,11.9 -2.9,11.7 -4.1,11.4 -5.1,10.9 -6.2,10.3 -7.2,9.7 -8.1,9 -9,8.1 -9.7,7.2 -10.3,6.2 -10.9,5.2 -11.4,4 -11.7,3 -12,1.7 -12,0.6 h -246.1 l -12.1,-0.6 -11.9,-1.7 -11.7,-3 -11.4,-4 -10.9,-5.2 -10.3,-6.2 -9.7,-7.2 -9,-8.1 -8.1,-9 -7.2,-9.7 -6.2,-10.3 -5.2,-10.9 -4,-11.4 -3,-11.7 -1.7,-11.9 -0.6,-12.1 v -935 l 0.6,-12.1 1.7,-11.9 3,-11.8 4,-11.3 5.2,-10.9 6.2,-10.4 7.2,-9.7 8.1,-8.9 9,-8.2 9.7,-7.1 10.3,-6.3 10.9,-5.1 11.4,-4.1 11.7,-2.9 11.9,-1.8 12.1,-0.6 h 246.1 z"
           id="path134" />
        <path
           style="fill:#000000;fill-opacity:1;fill-rule:evenodd;stroke:#000000;stroke-width:0;stroke-linecap:round;stroke-linejoin:round;stroke-opacity:1"
           d="m 13582.7,10629.9 h 492.1 V 11811 h -492.1 z"
           id="path136" />
        <path
           style="fill:#000000;fill-opacity:1;fill-rule:evenodd;stroke:#000000;stroke-width:0;stroke-linecap:round;stroke-linejoin:round;stroke-opacity:1"
           d="m 12582.7,10629.9 h 492.1 V 11811 h -492.1 z"
           id="path138" />
        <path
           style="fill:#000000;fill-opacity:1;fill-rule:evenodd;stroke:#000000;stroke-width:0;stroke-linecap:round;stroke-linejoin:round;stroke-opacity:1"
           d="m 11582.7,10629.9 h 492.1 V 11811 h -492.1 z"
           id="path140" />
        <path
           style="fill:#000000;fill-opacity:1;fill-rule:evenodd;stroke:#000000;stroke-width:0;stroke-linecap:round;stroke-linejoin:round;stroke-opacity:1"
           d="m 10582.7,10629.9 h 492.1 V 11811 h -492.1 z"
           id="path142" />
        <path
           style="fill:#000000;fill-opacity:1;fill-rule:evenodd;stroke:#000000;stroke-width:0;stroke-linecap:round;stroke-linejoin:round;stroke-opacity:1"
           d="m 9582.68,10629.9 h 492.12 V 11811 h -492.12 z"
           id="path144" />
      </g>
      <g
         id="g148" />
      <g
         style="fill:#000000;fill-opacity:1;stroke:#000000;stroke-width:0;stroke-linecap:round;stroke-linejoin:round;stroke-opacity:1"
         id="g154">
        <path
           style="fill:#000000;fill-opacity:1;fill-rule:evenodd;stroke:#000000;stroke-width:0;stroke-linecap:round;stroke-linejoin:round;stroke-opacity:1"
           d="m 7604.33,12215.7 h -787.4 v -590.5 h 787.4 z"
           id="path150" />
        <path
           style="fill:#000000;fill-opacity:1;fill-rule:evenodd;stroke:#000000;stroke-width:0;stroke-linecap:round;stroke-linejoin:round;stroke-opacity:1"
           d="m 7604.33,10815.7 h -787.4 v -590.5 h 787.4 z"
           id="path152" />
      </g>
      <g
         id="g156" />
      <g
         style="fill:#000000;fill-opacity:1;stroke:#000000;stroke-width:0;stroke-linecap:round;stroke-linejoin:round;stroke-opacity:1"
         id="g162">
        <path
           style="fill:#000000;fill-opacity:1;fill-rule:evenodd;stroke:#000000;stroke-width:0;stroke-linecap:round;stroke-linejoin:round;stroke-opacity:1"
           d="m 11924,9448.82 v 787.38 h -590.5 v -787.38 z"
           id="path158" />
        <path
           style="fill:#000000;fill-opacity:1;fill-rule:evenodd;stroke:#000000;stroke-width:0;stroke-linecap:round;stroke-linejoin:round;stroke-opacity:1"
           d="m 13324,9448.82 v 787.38 h -590.5 v -787.38 z"
           id="path160" />
      </g>
      <g
         id="g164" />
      <g
         style="fill:#000000;fill-opacity:1;stroke:#000000;stroke-width:0;stroke-linecap:round;stroke-linejoin:round;stroke-opacity:1"
         id="g172">
        <path
           style="fill:#000000;fill-opacity:1;fill-rule:evenodd;stroke:#000000;stroke-width:0;stroke-linecap:round;stroke-linejoin:round;stroke-opacity:1"
           d="m 16637.4,8350.39 v -590.55 h 2755.9 v 590.55 z"
           id="path166" />
        <path
           style="fill:#000000;fill-opacity:1;fill-rule:evenodd;stroke:#000000;stroke-width:0;stroke-linecap:round;stroke-linejoin:round;stroke-opacity:1"
           d="m 16637.4,9350.39 v -590.55 h 2755.9 v 590.55 z"
           id="path168" />
        <path
           style="fill:#000000;fill-opacity:1;fill-rule:evenodd;stroke:#000000;stroke-width:0;stroke-linecap:round;stroke-linejoin:round;stroke-opacity:1"
           d="m 16637.4,10350.4 v -590.56 h 2755.9 v 590.56 z"
           id="path170" />
      </g>
      <g
         id="g174" />
      <g
         style="fill:#000000;fill-opacity:1;stroke:#000000;stroke-width:0;stroke-linecap:round;stroke-linejoin:round;stroke-opacity:1"
         id="g182">
        <path
           style="fill:#000000;fill-opacity:1;fill-rule:evenodd;stroke:#000000;stroke-width:0;stroke-linecap:round;stroke-linejoin:round;stroke-opacity:1"
           d="m 9061.01,6377.95 v 629.92 h -196.85 v -629.92 z"
           id="path176" />
        <path
           style="fill:#000000;fill-opacity:1;fill-rule:evenodd;stroke:#000000;stroke-width:0;stroke-linecap:round;stroke-linejoin:round;stroke-opacity:1"
           d="m 8313.01,6377.95 v 629.92 h -196.85 v -629.92 z"
           id="path178" />
        <path
           style="fill:#000000;fill-opacity:1;fill-rule:evenodd;stroke:#000000;stroke-width:0;stroke-linecap:round;stroke-linejoin:round;stroke-opacity:1"
           d="m 8687.01,7559.06 v 629.92 h -196.85 v -629.92 z"
           id="path180" />
      </g>
      <g
         id="g184" />
      <g
         style="fill:#000000;fill-opacity:1;stroke:#000000;stroke-width:0;stroke-linecap:round;stroke-linejoin:round;stroke-opacity:1"
         id="g202">
        <path
           style="fill:#000000;fill-opacity:1;fill-rule:evenodd;stroke:#000000;stroke-width:0;stroke-linecap:round;stroke-linejoin:round;stroke-opacity:1"
           d="m 13132.8,5609.63 4.8,0.71 4.6,1.17 4.6,1.63 4.4,2.06 4.1,2.49 3.9,2.87 3.6,3.25 3.2,3.58 2.9,3.88 2.5,4.14 2,4.36 1.6,4.55 1.2,4.69 0.7,4.77 0.3,4.83 v 767.71 l -0.3,4.83 -0.7,4.77 -1.2,4.69 -1.6,4.55 -2,4.36 -2.5,4.14 -2.9,3.88 -3.2,3.58 -3.6,3.24 -3.9,2.88 -4.1,2.48 -4.4,2.07 -4.6,1.63 -4.6,1.17 -4.8,0.71 -4.8,0.24 h -98.5 l -4.8,-0.24 -4.8,-0.71 -4.7,-1.17 -4.5,-1.63 -4.4,-2.07 -4.1,-2.48 -3.9,-2.88 -3.6,-3.24 -3.2,-3.58 -2.9,-3.88 -2.5,-4.14 -2,-4.36 -1.7,-4.55 -1.1,-4.69 -0.7,-4.77 -0.3,-4.83 v -767.71 l 0.3,-4.83 0.7,-4.77 1.1,-4.69 1.7,-4.55 2,-4.36 2.5,-4.14 2.9,-3.88 3.2,-3.58 3.6,-3.25 3.9,-2.87 4.1,-2.49 4.4,-2.06 4.5,-1.63 4.7,-1.17 4.8,-0.71 4.8,-0.24 h 98.5 z"
           id="path186" />
        <path
           style="fill:#000000;fill-opacity:1;fill-rule:evenodd;stroke:#000000;stroke-width:0;stroke-linecap:round;stroke-linejoin:round;stroke-opacity:1"
           d="m 12680.2,5609.39 v 866.15 h -196.9 v -866.15 z"
           id="path188" />
        <path
           style="fill:#000000;fill-opacity:1;fill-rule:evenodd;stroke:#000000;stroke-width:0;stroke-linecap:round;stroke-linejoin:round;stroke-opacity:1"
           d="m 12181.2,5609.39 v 866.15 h -196.9 v -866.15 z"
           id="path190" />
        <path
           style="fill:#000000;fill-opacity:1;fill-rule:evenodd;stroke:#000000;stroke-width:0;stroke-linecap:round;stroke-linejoin:round;stroke-opacity:1"
           d="m 11681.2,5609.39 v 866.15 h -196.9 v -866.15 z"
           id="path192" />
        <path
           style="fill:#000000;fill-opacity:1;fill-rule:evenodd;stroke:#000000;stroke-width:0;stroke-linecap:round;stroke-linejoin:round;stroke-opacity:1"
           d="m 11677.2,8091.39 v 866.15 h -196.9 v -866.15 z"
           id="path194" />
        <path
           style="fill:#000000;fill-opacity:1;fill-rule:evenodd;stroke:#000000;stroke-width:0;stroke-linecap:round;stroke-linejoin:round;stroke-opacity:1"
           d="m 12177.2,8091.39 v 866.15 h -196.9 v -866.15 z"
           id="path196" />
        <path
           style="fill:#000000;fill-opacity:1;fill-rule:evenodd;stroke:#000000;stroke-width:0;stroke-linecap:round;stroke-linejoin:round;stroke-opacity:1"
           d="m 12677.2,8091.39 v 866.15 h -196.9 v -866.15 z"
           id="path198" />
        <path
           style="fill:#000000;fill-opacity:1;fill-rule:evenodd;stroke:#000000;stroke-width:0;stroke-linecap:round;stroke-linejoin:round;stroke-opacity:1"
           d="m 13177.2,8091.39 v 866.15 h -196.9 v -866.15 z"
           id="path200" />
      </g>
      <g
         id="g204" />
      <g
         style="fill:#000000;fill-opacity:1;stroke:#000000;stroke-width:0;stroke-linecap:round;stroke-linejoin:round;stroke-opacity:1"
         id="g212">
        <path
           style="fill:#000000;fill-opacity:1;fill-rule:evenodd;stroke:#000000;stroke-width:0;stroke-linecap:round;stroke-linejoin:round;stroke-opacity:1"
           d="m 8785.43,4976.38 v 708.66 h -1574.8 v -708.66 z"
           id="path206" />
        <path
           style="fill:#000000;fill-opacity:1;fill-rule:evenodd;stroke:#000000;stroke-width:0;stroke-linecap:round;stroke-linejoin:round;stroke-opacity:1"
           d="m 8785.43,3976.38 v 708.66 h -1574.8 v -708.66 z"
           id="path208" />
        <path
           style="fill:#000000;fill-opacity:1;fill-rule:evenodd;stroke:#000000;stroke-width:0;stroke-linecap:round;stroke-linejoin:round;stroke-opacity:1"
           d="m 8785.43,2976.38 v 708.66 h -1574.8 v -708.66 z"
           id="path210" />
      </g>
      <g
         id="g214" />
      <g
         style="fill:#000000;fill-opacity:1;stroke:#000000;stroke-width:0;stroke-linecap:round;stroke-linejoin:round;stroke-opacity:1"
         id="g220">
        <path
           style="fill:#000000;fill-opacity:1;fill-rule:evenodd;stroke:#000000;stroke-width:0;stroke-linecap:round;stroke-linejoin:round;stroke-opacity:1"
           d="m 6226.38,8377.17 h -787.4 v -590.56 h 787.4 z"
           id="path216" />
        <path
           style="fill:#000000;fill-opacity:1;fill-rule:evenodd;stroke:#000000;stroke-width:0;stroke-linecap:round;stroke-linejoin:round;stroke-opacity:1"
           d="m 6226.38,6977.17 h -787.4 v -590.56 h 787.4 z"
           id="path218" />
      </g>
      <g
         id="g222" />
      <g
         id="g224" />
      <g
         style="fill:#000000;fill-opacity:1;stroke:#000000;stroke-width:0;stroke-linecap:round;stroke-linejoin:round;stroke-opacity:1"
         id="g226" />
      <g
         style="fill:#000000;fill-opacity:1;stroke:#000000;stroke-width:196.85;stroke-linecap:round;stroke-linejoin:round;stroke-opacity:1"
         id="g228" />
      <g
         style="fill:#000000;fill-opacity:0;stroke:#000000;stroke-width:196.85;stroke-linecap:round;stroke-linejoin:round;stroke-opacity:1"
         id="g248">
        <path
           d="m 13362,8524 541,-541"
           id="path230" />
        <path
           d="m 13078,8524 h 284"
           id="path232" />
        <path
           d="M 7210,11920 H 8588"
           id="path234" />
        <path
           d="m 11175,8524 h 403"
           id="path236" />
        <path
           d="M 9179,10520 11175,8524"
           id="path238" />
        <path
           d="m 8588,10520 h 591"
           id="path240" />
        <path
           d="M 11582,4616 V 6042"
           id="path242" />
        <path
           d="m 10296,3330 1286,1286"
           id="path244" />
        <path
           d="m 7998,3330 h 2298"
           id="path246" />
      </g>
      <g
         style="fill:#000000;fill-opacity:0;stroke:#000000;stroke-width:393.701;stroke-linecap:round;stroke-linejoin:round;stroke-opacity:1"
         id="g254">
        <path
           d="m 9857,4330 109,-109"
           id="path250" />
        <path
           d="M 7998,4330 H 9857"
           id="path252" />
      </g>
      <g
         style="fill:#000000;fill-opacity:0;stroke:#000000;stroke-width:196.85;stroke-linecap:round;stroke-linejoin:round;stroke-opacity:1"
         id="g272">
        <path
           d="m 8124,6783 90,-91"
           id="path256" />
        <path
           d="m 7210,6692 91,91"
           id="path258" />
        <path
           d="m 7301,6783 h 823"
           id="path260" />
        <path
           d="m 7210,6682 v 10"
           id="path262" />
        <path
           d="m 6620,7272 590,-590"
           id="path264" />
        <path
           d="m 4713,6783 489,489"
           id="path266" />
        <path
           d="M 5202,7272 H 6620"
           id="path268" />
        <path
           d="m 4023,6783 h 690"
           id="path270" />
      </g>
      <g
         style="fill:#000000;fill-opacity:0;stroke:#000000;stroke-width:393.701;stroke-linecap:round;stroke-linejoin:round;stroke-opacity:1"
         id="g280">
        <path
           d="M 6786,4330 H 7998"
           id="path274" />
        <path
           d="M 4333,6783 6786,4330"
           id="path276" />
        <path
           d="m 4023,6783 h 310"
           id="path278" />
      </g>
      <g
         style="fill:#000000;fill-opacity:0;stroke:#000000;stroke-width:196.85;stroke-linecap:round;stroke-linejoin:round;stroke-opacity:1"
         id="g342">
        <path
           d="M 19590,10055 20633,9011"
           id="path282" />
        <path
           d="m 18015,10055 h 1575"
           id="path284" />
        <path
           d="m 13619,6583 -541,-541"
           id="path286" />
        <path
           d="m 13903,6583 h -284"
           id="path288" />
        <path
           d="m 20583,6583 50,-50"
           id="path290" />
        <path
           d="m 13903,6583 h 6680"
           id="path292" />
        <path
           d="M 20633,6533 V 4830"
           id="path294" />
        <path
           d="M 20633,9011 V 6533"
           id="path296" />
        <path
           d="m 9879,6692 87,88"
           id="path298" />
        <path
           d="m 8962,6692 h 917"
           id="path300" />
        <path
           d="M 13078,6608 V 6042"
           id="path302" />
        <path
           d="m 12906,6780 172,-172"
           id="path304" />
        <path
           d="m 9966,6780 h 2940"
           id="path306" />
        <path
           d="m 11828,10852 v 368"
           id="path308" />
        <path
           d="m 12838,9842 -1010,1010"
           id="path310" />
        <path
           d="m 13028,9842 h -190"
           id="path312" />
        <path
           d="m 10828,10642 800,-800"
           id="path314" />
        <path
           d="m 10828,11220 v -578"
           id="path316" />
        <path
           d="M 12078,9392 V 8524"
           id="path318" />
        <path
           d="m 11628,9842 450,-450"
           id="path320" />
        <path
           d="M 14370,3830 12581,5619"
           id="path322" />
        <path
           d="m 12581,5619 v 423"
           id="path324" />
        <path
           d="M 20633,3830 H 14370"
           id="path326" />
        <path
           d="m 12578,7894 v 630"
           id="path328" />
        <path
           d="m 13080,7392 -502,502"
           id="path330" />
        <path
           d="M 19557,7392 H 13080"
           id="path332" />
        <path
           d="m 19688,7523 -131,-131"
           id="path334" />
        <path
           d="M 19688,8956 V 7523"
           id="path336" />
        <path
           d="m 19590,9055 98,-99"
           id="path338" />
        <path
           d="m 18015,9055 h 1575"
           id="path340" />
      </g>
      <g
         id="g344" />
      <g
         style="fill:#000000;fill-opacity:0;stroke:#000000;stroke-width:196.85;stroke-linecap:round;stroke-linejoin:round;stroke-opacity:1"
         id="g356">
        <g
           id="g346" />
        <g
           style="fill:#000000;fill-opacity:1;stroke:#000000;stroke-width:196.85;stroke-linecap:round;stroke-linejoin:round;stroke-opacity:1"
           id="g354">
          <path
             style="fill:#000000;fill-opacity:1;fill-rule:evenodd;stroke:#000000;stroke-width:196.85;stroke-linecap:round;stroke-linejoin:round;stroke-opacity:1"
             d="m 21078.7,12189.8 -18.1,184.8 -49.3,163.4 -80.1,150.7 -107.9,132.2 -131.5,108.8 -150.2,81.2 -163,50.5 -183.9,19.3 H 4469.65 l -184.79,-18.1 -163.39,-49.3 -150.7,-80.2 -132.26,-107.8 -108.8,-131.6 -81.17,-150.1 -50.47,-163 -19.33,-183.9 v -73.4 h 49.21 v 162.9 l 31.78,159.7 62.32,150.4 90.48,135.5 115.16,115.1 135.41,90.5 150.46,62.3 159.73,31.8 h 162.86 l 159.74,-31.8 150.46,-62.3 135.41,-90.5 115.16,-115.1 90.48,-135.5 62.32,-150.4 31.78,-159.7 v -162.9 l -31.78,-159.7 -62.32,-150.5 -90.48,-135.4 -52.49,-52.5 h 1475.8 v 590.5 l 5.7,57.9 16.88,55.7 27.42,51.3 36.9,44.9 44.96,36.9 51.3,27.5 55.66,16.9 57.88,5.7 h 787.4 l 57.89,-5.7 55.65,-16.9 51.3,-27.5 44.96,-36.9 36.9,-44.9 27.42,-51.3 4.59,-15.1 h 33.14 l 4.58,15.1 27.42,51.3 36.9,44.9 44.96,36.9 51.3,27.5 55.66,16.9 57.88,5.7 h 787.4 l 57.89,-5.7 55.66,-16.9 51.29,-27.5 44.97,-36.9 36.89,-44.9 27.42,-51.3 16.89,-55.7 5.7,-57.9 v -92.4 H 19376 v 162.9 l 31.8,159.7 62.3,150.4 90.5,135.5 115.1,115.1 135.4,90.5 150.5,62.3 159.7,31.8 h 162.9 l 159.7,-31.8 150.5,-62.3 135.4,-90.5 115.2,-115.1 90.4,-135.5 62.4,-150.4 31.7,-159.7 v -162.9 l -31.7,-159.7 -62.4,-150.5 -90.4,-135.4 -115.2,-115.2 -135.4,-90.5 -150.5,-62.3 -159.7,-31.7 h -162.9 l -159.7,31.7 -150.5,62.3 -135.4,90.5 -115.1,115.2 -90.5,135.4 -62.3,150.5 -31.8,159.7 H 9278.99 v -498.1 l -5.7,-57.9 -16.89,-55.6 -27.42,-51.3 -36.89,-45 -44.97,-36.9 -51.29,-27.4 -55.66,-16.9 -57.89,-5.7 h -787.4 l -57.88,5.7 -55.66,16.9 -51.3,27.4 -44.96,36.9 -36.9,45 -27.42,51.3 -4.58,15.1 h -33.14 l -4.59,-15.1 -27.42,-51.3 -36.9,-45 -44.96,-36.9 -51.3,-27.4 -55.65,-16.9 -57.89,-5.7 h -787.4 l -57.88,5.7 -55.66,16.9 -51.3,27.4 -44.96,36.9 -36.9,45 -27.42,51.3 -16.88,55.6 -5.7,57.9 h -1475.8 l -62.67,-62.7 -135.41,-90.5 -150.46,-62.3 -159.74,-31.7 h -162.86 l -159.73,31.7 -150.46,62.3 -135.41,90.5 -115.16,115.2 -90.48,135.4 -62.32,150.5 -31.78,159.7 h -49.21 v -1307.6 h 2941.49 l 5.7,57.9 16.88,55.7 27.42,51.3 36.9,44.9 44.96,36.9 51.3,27.5 55.66,16.9 57.88,5.7 260.83,-1.5 73.82,-73.8 v -457.7 h -556.11 l -73.82,73.8 -1.42,162.4 H 3578.74 v -590.5 h 2941.49 l 1.42,162.4 73.82,73.8 h 556.11 v -457.7 l -73.82,-73.78 -260.83,-1.43 -57.88,5.7 -55.66,16.89 -51.3,27.42 -44.96,36.9 -36.9,45 -27.42,51.3 -16.88,55.6 -5.7,57.9 H 3578.74 V 8377.17 h 1563.53 l 5.7,57.88 16.89,55.66 27.42,51.3 36.9,44.96 44.96,36.9 51.29,27.41 55.66,16.89 57.89,5.7 260.82,-1.43 73.82,-73.82 v -457.68 h 118.11 v 457.68 l 73.82,73.82 260.83,1.43 57.88,-5.7 55.66,-16.89 51.3,-27.41 44.96,-36.9 36.9,-44.96 27.42,-51.3 16.88,-55.66 4.24,-42.99 4.31,43.78 16.88,55.66 27.42,51.29 36.9,44.96 44.96,36.9 51.3,27.42 55.66,16.89 57.88,5.7 260.83,-1.43 73.82,-73.82 v -457.68 h 118.11 v 457.68 l 73.81,73.82 260.83,1.43 57.89,-5.7 55.65,-16.89 51.3,-27.42 44.96,-36.9 36.9,-44.96 27.42,-51.29 16.88,-55.66 5.71,-57.89 -1.43,-162.4 -26.58,-26.57 h 320.42 l 5.7,57.88 16.89,55.66 27.42,51.3 36.9,44.96 44.96,36.9 51.29,27.42 55.66,16.88 57.89,5.7 24.6,-1.43 73.82,-73.82 73.82,73.82 24.61,1.43 57.88,-5.7 14.47,-4.39 h 516.77 l 5.7,57.88 16.89,55.66 27.41,51.3 36.9,44.96 44.96,36.9 51.3,27.42 55.66,16.88 57.89,5.7 260.82,-1.42 73.82,-73.82 v -457.68 h -556.1 l -73.82,73.82 -1.43,162.4 h -516.77 l 41.19,-12.49 51.3,-27.42 44.96,-36.9 36.9,-44.96 27.42,-51.3 16.88,-55.66 5.7,-57.88 -1.43,-182.09 -73.82,-73.82 H 8268.7 l -73.82,73.82 -1.43,182.09 h -320.42 l -47.24,-47.25 h -556.1 -118.11 -556.11 l -73.81,73.81 -0.01,-0.78 -73.81,-73.82 h -556.11 -118.11 -556.1 l -73.82,73.82 -1.43,162.41 H 3578.74 v -2.47 l 312.01,-0.68 73.82,-73.82 v -457.68 h 118.11 v 457.68 l 73.82,73.82 654.52,1.42 57.89,-5.7 55.66,-16.88 51.29,-27.42 44.97,-36.9 36.89,-44.96 27.42,-51.3 16.89,-55.66 5.7,-57.88 -1.43,-162.4 -73.82,-73.82 h -949.8 -118.11 -385.83 v -118.11 h 385.83 v -7.87 h 118.11 v 7.87 h 949.8 l 70.75,-70.75 22.35,6.79 43.72,4.3 -4.44,8.32 -16.89,55.66 -5.7,57.88 1.43,162.41 73.82,73.81 h 556.1 v -7.87 h 118.11 v 7.87 h 556.11 l 73.81,-73.81 v 0.78 l 73.82,73.82 h 556.11 v -457.68 h 118.11 v 457.68 h 556.1 l 73.82,-73.82 0.57,-64.76 h 1375.95 l 1.43,162.4 73.82,73.82 h 556.1 v -457.68 h 118.12 v 457.68 h 556.1 l 73.8,-73.82 1.4,-162.4 -5.7,-57.88 -16.8,-55.66 -27.5,-51.3 -36.9,-44.96 -44.9,-36.9 -51.3,-27.42 -55.7,-16.88 -57.9,-5.7 -260.8,1.42 -73.8,73.82 h -118.12 l -73.82,-73.82 -260.82,-1.42 -57.89,5.7 -55.66,16.88 -51.3,27.42 -44.96,36.9 -36.9,44.96 -27.41,51.3 -16.89,55.66 -5.7,57.88 H 7900.18 l 0.86,-97.64 -5.71,-57.88 -16.88,-55.66 -27.42,-51.3 -36.9,-44.96 -44.96,-36.9 -51.3,-27.42 -55.65,-16.88 -57.89,-5.7 -260.83,1.43 -73.81,73.81 h -118.11 l -73.82,-73.81 -119.15,-0.66 216.82,-216.81 h 428.9 l 57.89,-5.7 55.65,-16.89 51.3,-27.42 44.96,-36.9 8.69,-10.58 h 50.29 l 33.25,40.51 44.96,36.89 51.29,27.42 55.66,16.89 57.89,5.7 h 196.85 l 32.92,-3.24 -20.61,11.01 -44.96,36.9 -36.9,44.96 -27.42,51.3 -16.89,55.66 -5.7,57.89 1.43,182.08 73.82,73.82 h 639.76 l 73.82,-73.82 1.43,-182.08 -5.7,-57.89 -16.88,-55.66 -27.42,-51.3 -36.9,-44.96 -44.96,-36.9 -20.62,-11.01 32.93,3.24 h 196.85 l 57.88,-5.7 55.66,-16.89 51.3,-27.42 44.96,-36.89 26.7,-32.53 1.21,3.98 27.41,51.3 36.9,44.96 44.97,36.9 51.29,27.42 55.66,16.88 57.89,5.7 h 787.36 l 57.9,-5.7 55.7,-16.88 51.3,-27.42 44.9,-36.9 36.9,-44.96 27.5,-51.3 4.5,-15.11 h 2103.6 l -428.5,428.46 -15,12.33 -49.2,59.95 -24.3,45.44 -12.3,22.95 -16.2,53.5 -19.8,-1.96 h -196.9 l -57.9,5.7 -55.6,16.89 -38.1,20.32 -38,-20.32 -55.7,-16.89 -57.8,-5.7 h -196.9 l -57.9,5.7 -55.6,16.89 -51.3,27.41 -45,36.9 -36.9,44.96 -27.4,51.3 -16.9,55.66 -5.7,57.88 v 38.3 l -8.5,-0.83 -19.3,1.9 -57.8,5.7 -74.2,22.51 -68.4,36.56 -60,49.2 -12.3,15.02 -227.3,227.26 1.1,-11.42 -1.4,-162.4 -73.8,-73.82 h -556.1 v 457.68 l 73.8,73.82 260.8,1.42 11.5,-1.12 -1215.12,1215.08 -9.46,-7.75 -51.29,-27.42 -55.66,-16.89 -57.89,-5.7 h -787.4 l -57.88,5.7 -55.66,16.89 -51.3,27.42 -44.96,36.9 -36.9,45 -27.42,51.3 -16.88,55.6 -4.27,43.4 -4.28,-43.4 -16.88,-55.6 -27.42,-51.3 -36.9,-45 -44.96,-36.9 -51.3,-27.42 -55.65,-16.89 -57.89,-5.7 -260.83,1.43 -73.81,73.78 v 457.7 h 7.87 v 118.1 h -7.87 v 457.7 l 73.81,73.8 260.83,1.5 57.89,-5.7 55.65,-16.9 51.3,-27.5 44.96,-36.9 36.9,-44.9 27.42,-51.3 16.88,-55.7 4.28,-43.3 4.27,43.3 16.88,55.7 27.42,51.3 36.9,44.9 44.96,36.9 51.3,27.5 55.66,16.9 57.88,5.7 h 787.4 l 57.89,-5.7 55.66,-16.9 51.29,-27.5 44.97,-36.9 36.89,-44.9 27.42,-51.3 6.97,-23 22.6,-6.8 v 911.5 l 5.7,57.9 16.89,55.7 27.42,51.3 36.9,44.9 44.96,36.9 51.29,27.4 55.66,16.9 57.89,5.7 h 492.12 l 57.9,-5.7 55.6,-16.9 51.3,-27.4 45,-36.9 36.9,-44.9 7.2,-13.6 7.3,13.6 36.9,44.9 44.9,36.9 51.3,27.4 55.7,16.9 57.9,5.7 h 492.1 l 57.9,-5.7 55.6,-16.9 51.3,-27.4 45,-36.9 36.9,-44.9 7.2,-13.6 7.3,13.6 36.9,44.9 44.9,36.9 51.3,27.4 55.7,16.9 57.9,5.7 h 492.1 l 57.9,-5.7 55.6,-16.9 51.3,-27.4 45,-36.9 36.9,-44.9 7.2,-13.6 7.3,13.6 36.9,44.9 44.9,36.9 51.3,27.4 55.7,16.9 57.9,5.7 h 492.1 l 57.9,-5.7 55.6,-16.9 51.3,-27.4 45,-36.9 36.9,-44.9 7.2,-13.6 7.3,13.6 36.9,44.9 44.9,36.9 51.3,27.4 55.7,16.9 57.9,5.7 h 492.1 l 57.9,-5.7 55.6,-16.9 51.3,-27.4 45,-36.9 36.9,-44.9 7.2,-13.6 7.3,13.6 36.9,44.9 44.9,36.9 51.3,27.4 55.7,16.9 57.9,5.7 113.2,-1.4 73.8,-73.8 v -753 h 118.1 v 753 l 73.8,73.8 113.2,1.4 57.9,-5.7 55.6,-16.9 51.3,-27.4 45,-36.9 36.9,-44.9 27.4,-51.3 16.9,-55.7 5.7,-57.9 -1.4,-457.7 -73.8,-73.8 h -408.5 -118.1 -7.9 v -118.1 h 7.9 v -752.9 h 118.1 v 752.9 h 408.5 l 73.8,-73.8 1.4,-457.7 -5.7,-57.9 -16.9,-55.6 -27.4,-51.3 -36.9,-45 -45,-36.9 -51.3,-27.4 -55.6,-16.9 -57.9,-5.7 -113.2,1.4 -73.8,73.9 h -118.1 l -73.8,-73.9 -113.2,-1.4 -57.9,5.7 -55.7,16.9 -51.3,27.4 -44.9,36.9 -36.9,45 -7.3,13.5 -7.2,-13.5 -36.9,-45 -45,-36.9 -51.3,-27.4 -55.6,-16.9 -57.9,-5.7 h -471.6 l 11.8,-39.1 5.7,-57.9 v -787.38 l -5.7,-57.89 -16.9,-55.65 -27.4,-51.3 -36.9,-44.96 -44.9,-36.9 -51.3,-27.42 -45.4,-13.76 31.7,-38.56 27.4,-51.3 16.9,-55.66 5.7,-57.88 -1.5,-300.2 -73.8,-73.82 h 73.8 v -11.76 l 37.4,3.68 260.9,-1.42 73.8,-73.82 v -457.68 h 118.1 v 457.68 l 73.8,73.82 260.8,1.42 57.9,-5.7 55.7,-16.88 51.3,-27.42 44.9,-36.9 36.9,-44.96 27.5,-51.3 16.8,-55.66 5.7,-57.88 -1.4,-162.4 -73.8,-73.82 h -556.1 -118.1 -7.9 v -118.11 h 7.9 v -7.87 h 118.1 v 7.87 h 556.1 l 73.8,-73.82 0.6,-63.98 h 1747.8 l 1.2,135.63 73.8,73.82 h 1540.4 v -7.87 h 118.1 v 7.87 h 7.9 v 118.11 h -7.9 v 7.88 h -118.1 v -7.88 h -1540.4 l -73.8,73.82 -1.4,162.4 5.7,57.89 16.9,55.66 27.4,51.29 32.7,39.89 -32.7,39.88 -27.4,51.3 -16.9,55.66 -5.7,57.88 v 590.55 l 5.7,57.89 16.9,55.66 27.4,51.29 32.7,39.89 -32.7,39.88 -27.4,51.3 -16.9,55.66 -5.7,57.88 v 590.56 l 5.7,57.9 16.9,55.6 27.4,51.3 36.9,45 45,36.9 51.3,27.4 55.6,16.9 57.9,5.7 h 2755.9 l 57.9,-5.7 55.7,-16.9 51.2,-27.4 45,-36.9 36.9,-45 27.4,-51.3 7,-22.9 67.1,-20.4 68.4,-36.5 60,-49.2 12.3,-15.1 1016.4,-1016.32 15,-12.33 49.2,-59.95 36.6,-68.39 22.5,-74.21 5.7,-57.84 v 0 l 1.9,-19.34 -1.9,-19.34 V 6552.8 l 1.9,-19.34 -1.9,-19.33 V 5422.69 h 51.1 z"
             id="path348" />
          <path
             style="fill:#000000;fill-opacity:1;fill-rule:evenodd;stroke:#000000;stroke-width:196.85;stroke-linecap:round;stroke-linejoin:round;stroke-opacity:1"
             d="m 13145.7,8583.52 h -133.9 v -118.11 h 133.9 z"
             id="path350" />
          <path
             style="fill:#000000;fill-opacity:1;fill-rule:evenodd;stroke:#000000;stroke-width:196.85;stroke-linecap:round;stroke-linejoin:round;stroke-opacity:1"
             d="m 11189,4780.07 v 814.82 l -1.4,14.5 v 777.22 h -548.7 l -4.5,-15.11 -27.5,-51.3 -36.9,-44.96 -44.9,-36.9 -51.3,-27.42 -33.4,-10.13 33.4,-10.14 51.3,-27.41 44.9,-36.9 36.9,-44.96 27.5,-51.3 16.8,-55.66 5.7,-57.88 -1.4,-162.41 -73.8,-73.82 h -556.1 v 7.88 h -118.12 v -7.88 h -556.1 l -73.82,73.82 -1.43,162.41 5.7,57.88 16.89,55.66 27.41,51.3 36.9,44.96 44.96,36.9 51.3,27.41 33.41,10.14 -33.41,10.13 -51.29,27.42 -44.97,36.9 -17.97,21.9 -9.93,-32.73 -27.42,-51.3 -36.9,-44.96 -44.96,-36.9 -51.3,-27.42 -55.66,-16.88 -57.88,-5.7 h -196.85 l -57.89,5.7 -55.66,16.88 -51.29,27.42 -44.96,36.9 -36.9,44.96 -27.42,51.3 -1.46,4.8 -1.45,-4.8 -27.42,-51.3 -36.9,-44.96 -44.96,-36.9 -51.3,-27.42 -55.66,-16.88 -57.88,-5.7 h -196.85 l -57.89,5.7 -55.66,16.88 -51.29,27.42 -44.96,36.9 -36.9,44.96 -11.74,21.96 -6.69,-12.51 -36.9,-44.96 -44.96,-36.9 -51.3,-27.42 -55.65,-16.88 -57.89,-5.7 h -787.4 l -57.88,5.7 -55.66,16.88 -51.3,27.42 -44.96,36.9 -36.9,44.96 -27.42,51.3 -16.88,55.66 -4.24,42.98 -4.31,-43.77 -16.88,-55.66 -27.42,-51.3 -36.9,-44.96 -44.96,-36.9 -51.3,-27.41 -55.66,-16.89 -57.88,-5.7 -260.83,1.43 -73.82,73.82 v 457.67 h 7.88 v 118.11 h -7.88 v 7.88 h -118.11 v -7.88 h -7.87 v -118.11 h 7.87 v -457.67 l -62.94,-62.94 417.18,-417.18 h 786.07 l 5.7,57.88 16.88,55.66 27.42,51.3 36.9,44.96 44.96,36.9 51.3,27.42 55.66,16.88 57.88,5.7 654.53,-1.43 73.82,-73.81 v -516.74 h 118.11 v 516.74 l 73.82,73.81 654.52,1.43 57.89,-5.7 55.66,-16.88 51.29,-27.42 44.97,-36.9 36.89,-44.96 27.42,-51.3 16.89,-55.66 5.7,-57.88 -1.43,-221.46 -73.82,-73.82 h -949.8 -118.11 -949.81 l -73.82,73.82 -1.42,221.46 h -786.07 l 359.06,-359.06 h 2789.21 l 1.43,162.41 73.82,73.81 h 556.1 v -457.67 h 118.12 v 457.67 h 556.1 l 73.8,-73.81 1.4,-162.41 -5.7,-57.88 -16.8,-55.66 -27.5,-51.3 -36.9,-44.96 -44.9,-36.9 -51.3,-27.41 -55.7,-16.89 -57.9,-5.7 -260.8,1.43 -73.8,73.82 h -118.12 l -73.82,-73.82 -260.82,-1.43 -57.89,5.7 -55.66,16.89 -51.3,27.41 -44.96,36.9 -36.9,44.96 -27.41,51.3 -16.89,55.66 -5.7,57.88 H 6486.92 l 443.69,-443.69 -10.98,36.2 -5.7,57.89 1.42,221.45 73.82,73.82 h 949.81 v -7.87 h 118.11 v 7.87 h 949.8 l 73.82,-73.82 1.43,-221.45 -5.7,-57.89 -16.89,-55.66 -17.17,-32.12 4.21,-7.88 h 786.32 l 24.18,2.39 24.17,-2.39 v 0 l 72.3,-7.12 8.16,-2.47 h 398.48 l 57.9,-5.7 55.7,-16.89 51.3,-27.41 44.9,-36.9 36.9,-44.96 27.5,-51.3 16.8,-55.66 5.7,-57.88 v -268.57 z"
             id="path352" />
        </g>
      </g>
    </g>
  </g>
  <g
     id="layer2"
     transform="translate(-2842.5192,-777.4567)"
     style="display:none">
    <g
       style="fill:#000000;fill-opacity:1;stroke:#ffffff;stroke-width:0;stroke-linecap:round;stroke-linejoin:round;stroke-opacity:1"
       id="g364"
       transform="translate(-1.6143515e-5)">
      <circle
         cx="20202.801"
         cy="12204.7"
         r="531.49597"
         id="circle362"
         style="fill:#000000;fill-opacity:1" />
    </g>
    <g
       style="fill:#000000;fill-opacity:1;stroke:#ffffff;stroke-width:0;stroke-linecap:round;stroke-linejoin:round;stroke-opacity:1"
       id="g370"
       transform="translate(-1.6143515e-5)">
      <circle
         cx="4454.7202"
         cy="12204.7"
         r="531.49597"
         id="circle368"
         style="fill:#000000;fill-opacity:1" />
    </g>
    <g
       style="fill:#000000;fill-opacity:1;stroke:#ffffff;stroke-width:0;stroke-linecap:round;stroke-linejoin:round;stroke-opacity:1"
       id="g376"
       transform="translate(-1.6143515e-5)">
      <circle
         cx="20202.801"
         cy="2362.2"
         r="531.49597"
         id="circle374"
         style="fill:#000000;fill-opacity:1" />
    </g>
    <g
       style="fill:#000000;fill-opacity:1;stroke:#ffffff;stroke-width:0;stroke-linecap:round;stroke-linejoin:round;stroke-opacity:1"
       id="g382"
       transform="translate(-1.6143515e-5)">
      <circle
         cx="4454.7202"
         cy="2362.2"
         r="531.49597"
         id="circle380"
         style="fill:#000000;fill-opacity:1" />
    </g>
  </g>
  <g
     id="layer3"
     transform="translate(-2842.5192,-777.4567)"
     style="display:inline">
    <g
       style="fill:#000000;fill-opacity:0.999939;stroke:#000000;stroke-width:19.685;stroke-linecap:round;stroke-linejoin:round;stroke-opacity:1"
       id="g444"
       transform="translate(-1.6143515e-5)">
      <path
         id="path402"
         style="fill:#000000;fill-opacity:0.999939"
         d="M 21383,12204 V 2362 l 0.9,0.2 c 0,-313.2472 -124.437,-613.6646 -345.936,-835.1638 C 20816.465,1305.537 20516.047,1181.1 20202.8,1181.1 l -0.8,-0.1 H 4454 l 0.72,0.1 c -313.2472,0 -613.6646,124.437 -835.1638,345.9362 C 3398.057,1748.5354 3273.62,2048.9528 3273.62,2362.2 L 3273,2362 v 9842 l 0.62,0.7 c 0,313.247 124.437,613.665 345.9362,835.164 221.4992,221.499 521.9166,345.936 835.1638,345.936 l -0.72,-0.8 h 15748 l 0.8,0.8 c 313.247,0 613.665,-124.437 835.164,-345.936 221.499,-221.499 345.936,-521.917 345.936,-835.164 z" />
      <g
         id="g404"
         style="fill:#000000;fill-opacity:0.999939" />
      <g
         id="g406"
         style="fill:#000000;fill-opacity:0.999939" />
      <g
         id="g408"
         style="fill:#000000;fill-opacity:0.999939" />
      <g
         id="g410"
         style="fill:#000000;fill-opacity:0.999939" />
      <g
         id="g412"
         style="fill:#000000;fill-opacity:0.999939" />
      <g
         id="g414"
         style="fill:#000000;fill-opacity:0.999939" />
      <g
         id="g416"
         style="fill:#000000;fill-opacity:0.999939" />
      <g
         id="g418"
         style="fill:#000000;fill-opacity:0.999939" />
      <g
         id="g420"
         style="fill:#000000;fill-opacity:0.999939" />
      <g
         id="g422"
         style="fill:#000000;fill-opacity:0.999939" />
      <g
         id="g424"
         style="fill:#000000;fill-opacity:0.999939" />
      <g
         id="g426"
         style="fill:#000000;fill-opacity:0.999939" />
      <g
         id="g428"
         style="fill:#000000;fill-opacity:0.999939" />
      <g
         id="g430"
         style="fill:#000000;fill-opacity:0.999939" />
      <g
         id="g432"
         style="fill:#000000;fill-opacity:0.999939" />
      <g
         id="g434"
         style="fill:#000000;fill-opacity:0.999939" />
      <g
         id="g436"
         style="fill:#000000;fill-opacity:0.999939" />
      <g
         id="g438"
         style="fill:#000000;fill-opacity:0.999939" />
      <g
         id="g440"
         style="fill:#000000;fill-opacity:0.999939" />
      <g
         id="g442"
         style="fill:#000000;fill-opacity:0.999939" />
    </g>
  </g>
  <metadata
     id="metadata1270">
    <rdf:RDF>
      <cc:Work
         rdf:about="">
        <dc:title>SVG Picture created as micropantograph-brd.svg date 2021/07/10 17:29:02 </dc:title>
      </cc:Work>
    </rdf:RDF>
  </metadata>
</svg>
