%TF.GenerationSoftware,KiCad,Pcbnew,5.1.10-88a1d61d58~88~ubuntu20.04.1*%
%TF.CreationDate,2021-07-12T17:43:57-04:00*%
%TF.ProjectId,micropantograph,6d696372-6f70-4616-9e74-6f6772617068,rev?*%
%TF.SameCoordinates,Original*%
%TF.FileFunction,Paste,Top*%
%TF.FilePolarity,Positive*%
%FSLAX46Y46*%
G04 Gerber Fmt 4.6, Leading zero omitted, Abs format (unit mm)*
G04 Created by KiCad (PCBNEW 5.1.10-88a1d61d58~88~ubuntu20.04.1) date 2021-07-12 17:43:57*
%MOMM*%
%LPD*%
G01*
G04 APERTURE LIST*
%ADD10R,1.000000X3.150000*%
%ADD11R,2.000000X1.500000*%
%ADD12R,1.300000X1.300000*%
%ADD13R,2.000000X1.300000*%
%ADD14R,1.250000X3.000000*%
%ADD15R,1.500000X2.000000*%
%ADD16R,0.500000X1.600000*%
%ADD17R,0.500000X2.200000*%
%ADD18R,4.000000X1.800000*%
G04 APERTURE END LIST*
D10*
%TO.C,J2*%
X151270000Y-78475000D03*
X151270000Y-83525000D03*
X148730000Y-78475000D03*
X148730000Y-83525000D03*
%TD*%
D11*
%TO.C,C3*%
X165500000Y-72222000D03*
X165500000Y-75778000D03*
%TD*%
D10*
%TO.C,J3*%
X186730000Y-83525000D03*
X186730000Y-78475000D03*
X189270000Y-83525000D03*
X189270000Y-78475000D03*
%TD*%
D12*
%TO.C,RV1*%
X180650000Y-83600000D03*
D13*
X179500000Y-78400000D03*
D12*
X178350000Y-83600000D03*
%TD*%
D11*
%TO.C,C1*%
X158500000Y-79222000D03*
X158500000Y-82778000D03*
%TD*%
%TO.C,C2*%
X165500000Y-82778000D03*
X165500000Y-79222000D03*
%TD*%
%TO.C,C4*%
X174000000Y-75722000D03*
X174000000Y-79278000D03*
%TD*%
%TO.C,C6*%
X162500000Y-72222000D03*
X162500000Y-75778000D03*
%TD*%
%TO.C,D1*%
X190000000Y-73778000D03*
X190000000Y-70222000D03*
%TD*%
%TO.C,J5*%
G36*
G01*
X176037500Y-86000000D02*
X176662500Y-86000000D01*
G75*
G02*
X176975000Y-86312500I0J-312500D01*
G01*
X176975000Y-88687500D01*
G75*
G02*
X176662500Y-89000000I-312500J0D01*
G01*
X176037500Y-89000000D01*
G75*
G02*
X175725000Y-88687500I0J312500D01*
G01*
X175725000Y-86312500D01*
G75*
G02*
X176037500Y-86000000I312500J0D01*
G01*
G37*
D14*
X173810000Y-87500000D03*
X171270000Y-87500000D03*
X168730000Y-87500000D03*
X166190000Y-87500000D03*
X163650000Y-87500000D03*
%TD*%
D11*
%TO.C,R2*%
X186000000Y-73778000D03*
X186000000Y-70222000D03*
%TD*%
D15*
%TO.C,R4*%
X168222000Y-84000000D03*
X171778000Y-84000000D03*
%TD*%
D16*
%TO.C,U1*%
X162949960Y-79000000D03*
X161050040Y-79000000D03*
X162000000Y-82000000D03*
%TD*%
%TO.C,U2*%
G36*
G01*
X172155000Y-73372860D02*
X172155000Y-75322860D01*
G75*
G02*
X172030000Y-75447860I-125000J0D01*
G01*
X171780000Y-75447860D01*
G75*
G02*
X171655000Y-75322860I0J125000D01*
G01*
X171655000Y-73372860D01*
G75*
G02*
X171780000Y-73247860I125000J0D01*
G01*
X172030000Y-73247860D01*
G75*
G02*
X172155000Y-73372860I0J-125000D01*
G01*
G37*
D17*
X170642620Y-74347860D03*
X169375160Y-74347860D03*
X168105160Y-74347860D03*
X168095000Y-80652140D03*
X169365000Y-80652140D03*
X170635000Y-80652140D03*
X171905000Y-80652140D03*
%TD*%
D18*
%TO.C,J1*%
X158500000Y-74540000D03*
X158500000Y-72000000D03*
X158500000Y-69460000D03*
%TD*%
D11*
%TO.C,R1*%
X155500000Y-82778000D03*
X155500000Y-79222000D03*
%TD*%
M02*
